<?xml version="1.0" standalone="no"?>
<!DOCTYPE svg PUBLIC "-//W3C//DTD SVG 1.1//EN" "http://www.w3.org/Graphics/SVG/1.1/DTD/svg11.dtd" >
<svg xmlns="http://www.w3.org/2000/svg">
  <metadata>Created by iconfont</metadata>
  <defs>
  <font id="nexmoefont" horiz-adv-x="1024">
    <font-face
      font-family="nexmoefont"
      font-weight="400"
      font-stretch="normal"
      units-per-em="1024"
      ascent="896"
      descent="-128"
    />
      <missing-glyph />
      
      <glyph glyph-name="appstore-fill1" unicode="&#58887;" d="M864 752h-304a16.032 16.032 0 0 1-16-16v-304c0-8.8 7.2-16 16-16H864a16.032 16.032 0 0 1 16 16V736a16.032 16.032 0 0 1-16 16zM864 352h-304a16.032 16.032 0 0 1-16-16V32c0-8.8 7.2-16 16-16H864a16.032 16.032 0 0 1 16 16v304a16.032 16.032 0 0 1-16 16zM464 752H160a16.032 16.032 0 0 1-16-16v-304c0-8.8 7.2-16 16-16h304a16.032 16.032 0 0 1 16 16V736a16.032 16.032 0 0 1-16 16z m0-400H160a16.032 16.032 0 0 1-16-16V32c0-8.8 7.2-16 16-16h304a16.032 16.032 0 0 1 16 16v304a16.032 16.032 0 0 1-16 16z"  horiz-adv-x="1024" />
      
      <glyph glyph-name="battlenet" unicode="&#58893;" d="M899.808 444.352s83.616-4.224 83.616 44.96c0 64.256-111.296 122.208-111.296 122.208s17.408 37.024 28.32 57.696c10.88 20.672 41.536 101.376 44.256 119.808 3.456 23.168-1.792 30.432-1.792 30.432-7.552-49.664-88.384-192.608-94.784-197.504-78.848 36.96-187.2 47.264-187.2 47.264S554.88 892.512 455.136 892.512c-98.88 0-98.4-191.232-98.4-191.232s-27.936 54.208-63.008 54.208c-51.264 0-68.096-77.568-68.096-161.664-101.248 0-186.432-22.624-194.048-24.8s-31.584-19.584-20.672-17.408c22.144 7.104 126.176 23.2 217.28 15.264 4.992-79.936 51.648-184.032 51.648-184.032s-100.064-144.96-100.064-248.48c0-27.264 11.872-77.056 83.712-77.056 60.16 0 127.712 36.192 140.448 43.552-11.104-15.872-19.328-46.048-19.328-59.872 0-11.36 6.752-43.552 53.12-43.552 59.616 0 126.176 45.696 126.176 45.696s62.848-104.48 116.576-152.352c14.496-12.896 28.32-15.264 28.32-15.264s-53.376 51.392-123.712 183.84c65.344 40.416 133.408 135.68 133.408 135.68s8-0.256 70.08-0.256c97.248 0 235.392 20.48 235.392 97.76 0 79.776-124.192 151.84-124.192 151.84z m10.88 48c0-28.192-26.848-27.872-26.848-27.872l-20.384-1.344s-38.72 20.384-62.176 29.888c0 0 36.352 56.064 44.864 71.712 6.464-3.744 64.576-40.096 64.576-72.384zM503.776 780c45.696 0 110.976-107.904 110.976-107.904s-101.824 9.12-185.632-40.128c2.304 77.696 28.448 148.032 74.656 148.032z m-181.088-87.424c14.528 0 28.768-17.664 34.592-32.64 0-9.888 5.152-67.68 5.152-67.68l-83.936 3.168c0 75.744 29.664 97.184 44.192 97.184z m-8.704-525.696c-45.856 0-55.328 25.568-55.328 48.576 0 52.096 41.568 124.96 41.568 124.96s46.56-97.984 127.904-139.36c-40.352-23.68-73.664-34.144-114.144-34.144z m148.928-102.624c-32.128 0-36.064 20.864-36.064 25.696 0 14.944 11.712 32.64 11.712 32.64s54.048 36.544 57.472 40.416l39.936-74.528s-40.896-24.256-73.024-24.256z m100.288 40.672c-19.552 34.208-33.984 69.952-33.984 69.952s80.384-5.216 123.552 39.456c-26.944-12.128-69.824-27.36-119.776-22.784 104.416 91.968 165.28 158.624 216.832 227.488-4.448 5.344-28 21.792-33.76 24.544-31.104-37.44-151.968-166.72-263.904-230.72-141.728 77.312-171.488 304.8-174.496 352.032l77.408-7.424s-29.088-51.584-29.088-89.568 4.544-39.968 4.544-39.968-0.96 66.176 39.904 117.28c31.104-165.728 63.552-250.624 88.864-301.248 12.896 5.344 36.896 16 36.896 16s-71.52 206.144-67.52 345.696c32.448 17.344 80.416 35.2 134.624 35.2 142.624 0 257.28-61.408 257.28-61.408l-44.864-62.656s-39.968 72.416-96.416 85.312c29.76-22.208 63.104-51.552 80.416-93.76-118.176 46.208-260.8 70.656-306.56 75.968-4-16.896-3.456-40.992-3.456-40.992s191.264-35.328 330.464-114.976c-0.96-174.176-190.688-307.936-216.896-323.456z m181.184 130.176s59.424 77.92 58.432 181.184c0 0 95.936-59.424 95.936-117.376 0-64.768-154.368-63.808-154.368-63.808z"  horiz-adv-x="1024" />
      
      <glyph glyph-name="bilibili" unicode="&#58894;" d="M868.928 724.896h-171.104l77.536 77.536c13.376 13.376 13.376 32.096 0 45.44s-32.096 13.376-45.44 0l-131.008-131.008h-128.32l-131.008 131.008c-10.688 13.376-26.72 16.032-42.784 8.032-2.688 0-2.688-2.688-5.344-5.344-13.376-13.376-13.376-32.096 0-45.44l80.224-80.224H200.576C107.008 724.896 29.472 647.36 29.472 553.792v-425.12c0-90.912 77.536-168.448 171.104-168.448h26.72c0-32.096 26.72-56.16 56.16-56.16s56.16 26.72 56.16 56.16h395.712c2.688-32.096 29.408-56.16 61.504-53.472 29.408 2.688 50.784 24.064 53.472 53.472h21.376c93.568 0 171.104 77.536 171.104 171.104V556.448c-2.688 93.568-80.224 168.448-173.792 168.448z m-5.344-660.384H211.232c-34.752 0-61.504 29.408-64.16 64.16l-2.688 433.12c0 34.752 29.408 64.16 64.16 64.16h652.352c34.752 0 61.504-29.408 64.16-64.16l2.688-433.12c-2.688-37.44-29.408-64.16-64.16-64.16z m-441.152 414.4l16.032-80.224-213.888-40.096-16.032 80.224 213.888 40.096z m205.856-80.192l16.032 80.224 213.888-40.096-16.032-80.224-213.888 40.096z m42.784-168.448c0-2.688 0-8.032-2.688-10.688-13.376-29.408-42.784-48.128-77.536-50.784-21.376 0-42.784 10.688-56.16 26.72-16.032-16.032-34.752-26.72-56.16-26.72a97.76 97.76 0 0 0-77.536 50.784c0 2.688-2.688 5.344-2.688 10.688 0 10.688 8.032 18.72 18.72 21.376h2.688c8.032 0 13.376-2.688 16.032-10.688 0 0 21.376-29.408 40.096-29.408 37.44 0 37.44 32.096 58.816 56.16 24.064-26.72 24.064-56.16 58.816-56.16 24.064 0 40.096 29.408 40.096 29.408 2.688 5.344 10.688 10.688 16.032 10.688 10.688 2.688 18.72-5.344 21.376-16.032v-5.344z"  horiz-adv-x="1056" />
      
      <glyph glyph-name="caret-top" unicode="&#58897;" d="M887.072 118.72L509.024 509.6 126.112 113.632a70.784 70.784 0 0 0-50.08-20.928c-39.872 0-72.128 33.408-72.128 74.592 0 20.096 7.712 38.368 20.224 51.776L456.992 666.688a70.88 70.88 0 0 0 51.904 22.816h0.32a70.72 70.72 0 0 0 51.904-22.816h0.032l432.64-447.808c12.48-13.408 20.096-31.552 20.096-51.616 0-41.216-32.288-74.592-72.128-74.592a70.88 70.88 0 0 0-54.688 26.016z"  horiz-adv-x="1024" />
      
      <glyph glyph-name="coffee" unicode="&#58900;" d="M70.69504 459.552V200.96a258.464 258.464 0 0 1 258.464-258.464h187.936a258.464 258.464 0 0 1 258.464 258.464v258.528l-704.896 0.064zM607.62304 886.08a35.2 35.2 0 0 0 4.352-49.728l0.032 0.064c-32.8-39.104-40.064-65.792-29.952-83.68 3.168-5.568 30.304-48.448 36.544-61.696 14.112-29.888 15.936-58.88 3.776-93.12a237.152 237.152 0 0 0-38.72-68.32l0.352 0.416h198.368c22.336-0.832 38.528-6.496 48.544-17.12 5.632-5.824 9.6-13.184 12.128-22.08l3.072 0.096a176.256 176.256 0 1 0 0-352.512l-5.92 0.192C809.86304-14.304 676.77504-128 517.15904-128h-188.032C147.46304-128 0.16704 19.264 0.16704 200.96v267.168c-1.024 22.144 3.168 37.824 12.48 47.008 9.344 9.184 23.168 14.144 41.344 14.816h150.944c2.048 3.36 4.48 6.208 7.328 8.64l0.064 0.032c31.168 26.432 51.52 54.016 61.728 82.816 5.824 16.352 5.152 26.08-1.12 39.424-4 8.48-29.088 48.16-34.08 57.056C211.30304 766.592 226.47104 822.4 276.07104 881.568a35.232 35.232 0 1 0 53.984-45.312l0.032 0.032C297.28704 797.184 290.05504 770.496 300.19904 752.608c3.104-5.568 30.304-48.448 36.544-61.696 14.048-29.888 15.936-58.88 3.744-93.12a237.088 237.088 0 0 0-38.688-68.32l0.352 0.448h43.84c2.048 3.36 4.48 6.208 7.328 8.64l0.064 0.032c31.136 26.464 51.456 54.08 61.696 82.848 5.824 16.352 5.216 26.08-1.12 39.424-4 8.48-29.088 48.16-34.08 57.056-27.552 48.672-12.384 104.48 37.248 163.648a35.2 35.2 0 0 0 63.328-21.376c0-9.248-3.552-17.664-9.376-23.936l0.032 0.032c-32.768-39.104-40.032-65.792-29.888-83.68 3.168-5.568 30.304-48.448 36.544-61.696 14.112-29.888 15.936-58.88 3.744-93.12a237.088 237.088 0 0 0-38.688-68.32l0.352 0.448h43.904c2.016 3.36 4.448 6.208 7.264 8.64l0.032 0.032c31.168 26.464 51.456 54.08 61.696 82.848 5.824 16.352 5.216 26.08-1.12 39.424-4 8.48-29.024 48.16-34.08 57.056-27.488 48.672-12.384 104.48 37.248 163.648a35.296 35.296 0 0 0 49.664 4.352l-0.064 0.032z m238.432-465.632v-211.488a105.76 105.76 0 0 1 0 211.52z"  horiz-adv-x="1028" />
      
      <glyph glyph-name="container1" unicode="&#58901;" d="M832 832H192a32 32 0 0 1-32-32v-832a32 32 0 0 1 32-32h640a32 32 0 0 1 32 32V800a32 32 0 0 1-32 32z m-40-824H232v200.992h97.888a194.144 194.144 0 0 1 59.104-84.704C423.488 95.776 467.2 80 512 80a193.28 193.28 0 0 1 182.112 128.992h97.888V272h-148.384l-5.216-24.704C626.4 187.488 573.184 144 512 144s-114.4 43.488-126.496 103.296l-5.184 24.704H232.032V760h560v-752zM320 555.008h384c4.384 0 8 3.616 8 8v48a8.032 8.032 0 0 1-8 8H320a8.032 8.032 0 0 1-8-8v-48c0-4.384 3.616-8 8-8z m0-160h384c4.384 0 8 3.616 8 8v48a8.032 8.032 0 0 1-8 8H320a8.032 8.032 0 0 1-8-8v-48c0-4.384 3.616-8 8-8z"  horiz-adv-x="1024" />
      
      <glyph glyph-name="areachart1" unicode="&#58902;" d="M888 104H200V728A8 8 0 0 1 192 736H136a8 8 0 0 1-8-8v-688c0-4.384 3.584-8 8-8h752c4.384 0 8 3.616 8 8V96a8.032 8.032 0 0 1-8 8z m-616 64h536c4.384 0 8 3.616 8 8V612a8.032 8.032 0 0 1-13.696 5.696L592 407.392l-125.408 124a8 8 0 0 1-11.296 0l-188.992-189.6a7.84 7.84 0 0 1-2.304-5.6V176c0-4.384 3.616-8 8-8z"  horiz-adv-x="1024" />
      
      <glyph glyph-name="dribbble" unicode="&#58904;" d="M512 880C238.496 880 16 657.504 16 384S238.496-112 512-112 1008 110.496 1008 384 785.504 880 512 880z m327.936-228.736a421.6 421.6 0 0 0 95.68-263.904c-13.952 2.944-154.048 31.36-295.008 13.632-11.52 28.096-22.368 52.8-37.248 83.232 156.64 63.968 227.648 154.976 236.576 167.04z m-47.104 48.992c-7.616-10.848-71.392-96.576-222.048-153.024a2254.048 2254.048 0 0 1-158.08 248 422.56 422.56 0 0 0 380.128-94.976zM331.872 766.752a2704.704 2704.704 0 0 0 157.088-245.024c-198.176-52.64-372.736-51.872-391.68-51.616 27.488 131.456 116.064 240.736 234.592 296.64zM88.352 383.36c0 4.32 0.096 8.64 0.224 12.96 18.528-0.384 223.84-3.04 435.424 60.288 12.128-23.744 23.712-47.84 34.336-71.904-153.184-43.136-292.384-167.04-361.056-284.608a421.92 421.92 0 0 0-108.928 283.264z m163.616-334.24c44.256 90.464 164.352 207.232 335.168 265.504 59.488-154.56 84.064-284.096 90.368-321.28a422.784 422.784 0 0 0-425.536 55.776z m496.736-16.96c-4.352 25.76-26.88 149.792-82.304 302.08 132.768 21.248 249.408-13.536 263.904-18.112a424.48 424.48 0 0 0-181.6-283.968z"  horiz-adv-x="1024" />
      
      <glyph glyph-name="douban-fill1" unicode="&#58905;" d="M696.064 79.456h173.472c14.624 0 26.464-11.84 26.464-26.464v-26.528c0-14.624-11.84-26.464-26.464-26.464H154.432a26.464 26.464 0 0 0-26.464 26.464v26.496 0.032c0 14.624 11.84 26.464 26.464 26.464h160.16l-40.96 132.448H367.136c11.648 0 21.504-7.52 25.056-17.952l0.064-0.192 38.048-114.304h149.92l52.256 172.16H220.608a26.464 26.464 0 0 0-26.464 26.464V582.624c0 14.624 11.84 26.464 26.464 26.464h582.656c14.624 0 26.464-11.84 26.464-26.464v-304.544c0-14.624-11.84-26.464-26.464-26.464h-55.008l-52.256-172.16zM167.712 768h688.544c14.624 0 26.464-11.84 26.464-26.464v-26.528c0-14.624-11.84-26.464-26.464-26.464H167.712a26.464 26.464 0 0 0-26.464 26.464v26.528c0 14.592 11.808 26.432 26.4 26.464z m139.072-238.336h-0.032a6.624 6.624 0 0 1-6.624-6.624v-172.16c0-3.68 2.976-6.624 6.656-6.624h410.464a6.656 6.656 0 0 1 6.656 6.624v172.192a6.624 6.624 0 0 1-6.624 6.624H306.784z"  horiz-adv-x="1024" />
      
      <glyph glyph-name="ellipsis1" unicode="&#58906;" d="M176 384.992a56 56 0 0 1 112 0 56 56 0 0 1-112 0z m280 0a56 56 0 0 1 112 0 56 56 0 0 1-112 0z m280 0a56 56 0 0 1 112 0 56 56 0 0 1-112 0z"  horiz-adv-x="1024" />
      
      <glyph glyph-name="eye-fill" unicode="&#58907;" d="M396 384a112 112 0 1 1 224 0 112 112 0 1 1-224 0z m546.208 25.792C847.424 609.504 704.096 709.984 512 709.984c-192.192 0-335.392-100.512-430.208-300.288a60.16 60.16 0 0 1 0-51.488C176.608 158.496 319.904 58.016 512 58.016c192.192 0 335.392 100.512 430.208 300.288a60.16 60.16 0 0 1 0 51.488zM508 208a176 176 0 1 0 0 352 176 176 0 0 0 0-352z"  horiz-adv-x="1024" />
      
      <glyph glyph-name="github1" unicode="&#58908;" d="M512 64c-19.2 0-38.4 10.656-57.6 29.856-8.544 8.544-8.544 21.344 0 27.744 8.544 8.544 21.344 8.544 27.744 0 12.8-12.8 21.344-19.2 29.856-19.2s17.056 6.4 29.856 19.2c8.544 8.544 21.344 8.544 27.744 0 8.544-8.544 8.544-21.344 0-27.744-19.2-19.2-38.4-29.856-57.6-29.856zM0 371.2c0-51.2 4.256-96 12.8-136.544s21.344-76.8 36.256-104.544c14.944-29.856 34.144-57.6 57.6-78.944 23.456-23.456 49.056-40.544 76.8-55.456s59.744-25.6 96-36.256c36.256-8.544 72.544-14.944 108.8-19.2 38.4-2.144 78.944-4.256 123.744-4.256s85.344 2.144 121.6 6.4 72.544 10.656 108.8 19.2 68.256 21.344 96 36.256c27.744 14.944 53.344 32 76.8 55.456s42.656 49.056 59.744 78.944c14.944 29.856 27.744 64 36.256 104.544s12.8 85.344 12.8 136.544c0 89.6-27.744 166.4-83.2 230.4 2.144 8.544 6.4 19.2 8.544 29.856s4.256 27.744 6.4 46.944a265.12 265.12 0 0 1-2.144 70.4c-4.256 25.6-10.656 53.344-21.344 81.056h-8.544c-4.256 2.144-14.944 0-25.6-2.144-12.8-2.144-25.6-4.256-42.656-10.656-17.056-4.256-36.256-14.944-61.856-27.744s-53.344-32-81.056-53.344c-49.056 17.056-115.2 32-200.544 32s-151.456-14.944-200.544-29.856a503.936 503.936 0 0 1-81.056 51.2c-25.6 14.944-46.944 23.456-61.856 29.856-14.944 4.256-29.856 8.544-42.656 10.656h-25.6c-4.256 0-6.4-2.144-8.544-2.144-10.656-27.744-17.056-55.456-21.344-81.056s-4.256-49.056-2.144-70.4c2.144-19.2 4.256-36.256 6.4-46.944s6.4-21.344 8.544-29.856c-55.456-64-83.2-140.8-83.2-230.4zM136.544 256c0 57.6 21.344 110.944 64 157.856 12.8 14.944 27.744 25.6 44.8 32s36.256 10.656 57.6 12.8H364.8c19.2-2.144 44.8-4.256 72.544-6.4S490.688 448 512 448s46.944 2.144 74.656 4.256c29.856 2.144 53.344 4.256 72.544 6.4s40.544 2.144 61.856 0c21.344 0 40.544-4.256 57.6-12.8 17.056-6.4 32-19.2 44.8-32 42.656-46.944 64-100.256 64-157.856 0-34.144-4.256-64-10.656-91.744-6.4-25.6-17.056-49.056-27.744-66.144s-25.6-34.144-44.8-44.8c-19.2-12.8-38.4-21.344-57.6-27.744s-42.656-12.8-70.4-14.944c-29.856-4.256-55.456-6.4-76.8-6.4-23.456-4.256-53.344-4.256-87.456-4.256s-64 0-87.456 2.144c-23.456 0-49.056 2.144-76.8 6.4-29.856 4.256-53.344 8.544-70.4 14.944-19.2 6.4-36.256 17.056-57.6 27.744-19.2 12.8-34.144 27.744-44.8 44.8s-19.2 40.544-27.744 66.144A435.84 435.84 0 0 0 136.544 256zM256 288c0-53.344 27.744-96 64-96s64 42.656 64 96-27.744 96-64 96-64-42.656-64-96z m384 0c0-53.344 27.744-96 64-96s64 42.656 64 96-27.744 96-64 96-64-42.656-64-96z m0 0"  horiz-adv-x="1024" />
      
      <glyph glyph-name="home" unicode="&#58909;" d="M946.496 391.008L534.208 803.104a31.488 31.488 0 0 1-44.384 0L77.536 391.008a63.84 63.84 0 0 1-18.784-46.016c0.384-35.2 29.696-63.296 64.896-63.296h42.496v-325.696h691.808V281.696h43.392c17.088 0 33.216 6.688 45.312 18.784s18.688 28.192 18.688 45.312c0 16.992-6.688 33.088-18.784 45.184zM568 28h-112V232h112v-204z m217.888 325.696v-325.696H632V256a40 40 0 0 1-40 40h-160A40 40 0 0 1 392 256v-228H238.112V353.696h-96L512.128 723.392l369.888-369.696H785.92z"  horiz-adv-x="1024" />
      
      <glyph glyph-name="i-catalog" unicode="&#58910;" d="M887.2 631.36H320.064c-29.824 0-54.016 23.904-54.016 53.728s24.192 53.728 54.016 53.728h567.136c29.824 0 54.016-23.904 54.016-53.728s-24.192-53.728-54.016-53.728z m0-297.792H320.064c-29.824 0-54.016 24.416-54.016 54.24s24.192 54.24 54.016 54.24h567.136c29.824 0 54.016-24.416 54.016-54.24s-24.192-54.24-54.016-54.24z m0-296.768H320.064c-29.824 0-54.016 24.416-54.016 54.24s24.192 54.24 54.016 54.24h567.136c29.824 0 54.016-24.416 54.016-54.24s-24.192-54.24-54.016-54.24zM153.568 638.048H106.304a23.616 23.616 0 0 0-23.616 23.648V708.928c0 13.088 10.56 23.616 23.616 23.616h47.264c13.056 0 23.616-10.56 23.616-23.616v-47.232c0-13.056-10.56-23.648-23.616-23.648z m0-594.112H106.304a23.616 23.616 0 0 0-23.616 23.648v47.232c0 13.088 10.56 23.616 23.616 23.616h47.264c13.056 0 23.616-10.56 23.616-23.616v-47.232c0-13.056-10.56-23.648-23.616-23.648z m0 310.56H106.304a23.616 23.616 0 0 0-23.616 23.648v47.232c0 13.088 10.56 23.616 23.616 23.616h47.264c13.056 0 23.616-10.56 23.616-23.616v-47.232c0-13.056-10.56-23.648-23.616-23.648z"  horiz-adv-x="1024" />
      
      <glyph glyph-name="info-circle1" unicode="&#58912;" d="M512 832C264.608 832 64 631.392 64 384s200.608-448 448-448 448 200.608 448 448S759.392 832 512 832z m0-820C306.592 12 140 178.592 140 384S306.592 756 512 756 884 589.408 884 384 717.408 12 512 12zM464 560a48 48 0 0 1 96 0 48 48 0 0 1-96 0z m72-112h-48a8.032 8.032 0 0 1-8-8v-272c0-4.384 3.616-8 8-8h48c4.384 0 8 3.616 8 8v272a8.032 8.032 0 0 1-8 8z"  horiz-adv-x="1024" />
      
      <glyph glyph-name="left" unicode="&#58913;" d="M724 677.696V755.008a8 8 0 0 1-12.896 6.304L260.288 409.216a31.84 31.84 0 0 1 0-50.304l450.816-352.096a7.968 7.968 0 0 1 12.896 6.304v77.312c0 4.896-2.304 9.6-6.112 12.608l-360 280.992 360 281.088a16.192 16.192 0 0 1 6.112 12.608z"  horiz-adv-x="1024" />
      
      <glyph glyph-name="telegram1" unicode="&#58915;" d="M389.12 9.408l15.776 238.784L838.656 638.944c19.264 17.408-3.904 26.016-29.28 10.656L273.824 311.488l-231.424 73.536c-49.76 14.144-50.176 48.544 11.264 73.312L955.392 806.304c41.152 18.624 80.704-10.24 64.928-73.312l-153.6-723.36c-10.656-51.392-41.792-63.904-84.8-40.128l-233.888 172.864-112.448-108.96c-12.704-13.12-23.36-23.968-46.496-23.968z m0 0"  horiz-adv-x="1024" />
      
      <glyph glyph-name="twitter" unicode="&#58916;" d="M923.2 606.4c0-354.4-232.8-609.6-575.2-620.8-144.8-11.2-244 32.8-332.8 99.2 99.2-11.2 232.8 21.6 298.4 88.8-99.2 0-155.2 56-188 132H214.4c-88.8 33.6-156 100-156 210.4 21.6-11.2 44-21.6 88.8-21.6C69.6 538.4 25.6 682.4 80.8 771.2c99.2-110.4 220.8-210.4 421.6-220.8C446.4 771.2 735.2 883.2 856.8 738.4c56 11.2 88.8 32.8 132 56-11.2-56-44-88.8-88.8-110.4 44 0 77.6 11.2 110.4 32.8-10.4-44-54.4-88.8-87.2-110.4z"  horiz-adv-x="1024" />
      
      <glyph glyph-name="menu1" unicode="&#58917;" d="M904 736H120a8 8 0 0 1-8-8v-64c0-4.416 3.584-8 8-8h784a8 8 0 0 1 8 8v64a8 8 0 0 1-8 8z m0-624H120a8 8 0 0 1-8-8v-64c0-4.384 3.584-8 8-8h784c4.384 0 8 3.616 8 8v64a8.032 8.032 0 0 1-8 8z m0 312H120a8 8 0 0 1-8-8v-64c0-4.384 3.584-8 8-8h784c4.384 0 8 3.616 8 8v64a8.032 8.032 0 0 1-8 8z"  horiz-adv-x="1024" />
      
      <glyph glyph-name="mail-fill" unicode="&#58918;" d="M928 736H96a32 32 0 0 1-32-32v-640a32 32 0 0 1 32-32h832a32 32 0 0 1 32 32V704a32 32 0 0 1-32 32z m-80.8-108.896l-315.488-245.504a21.44 21.44 0 0 0-26.496 0L189.6 627.104A7.168 7.168 0 0 0 193.984 640h648.8a7.2 7.2 0 0 0 4.384-12.928z"  horiz-adv-x="1024" />
      
      <glyph glyph-name="unorderedlist2" unicode="&#58921;" d="M912 704H328a8 8 0 0 1-8-8V640c0-4.384 3.616-8 8-8H912c4.384 0 8 3.616 8 8V696A8 8 0 0 1 912 704z m0-284H328a8.032 8.032 0 0 1-8-8v-56c0-4.384 3.616-8 8-8H912c4.384 0 8 3.616 8 8v56a8.032 8.032 0 0 1-8 8z m0-284H328A8.032 8.032 0 0 1 320 128v-56c0-4.384 3.616-8 8-8H912c4.384 0 8 3.616 8 8V128a8.032 8.032 0 0 1-8 8zM104 668a56 56 0 0 1 112 0 56 56 0 0 1-112 0z m0-284a56 56 0 0 1 112 0 56 56 0 0 1-112 0z m0-284a56 56 0 0 1 112 0 56 56 0 0 1-112 0z"  horiz-adv-x="1024" />
      
      <glyph glyph-name="right" unicode="&#58922;" d="M765.696 409.184L314.88 761.28a7.968 7.968 0 0 1-12.896-6.304v-77.312c0-4.896 2.304-9.6 6.112-12.608l360-281.088-360-281.088a15.904 15.904 0 0 1-6.112-12.608v-77.312a8 8 0 0 1 12.896-6.304l450.784 352.096a32 32 0 0 1 0 50.4z"  horiz-adv-x="1024" />
      
      <glyph glyph-name="QQ" unicode="&#58923;" d="M824.8 282.784c-16 51.392-34.4 94.592-62.688 165.312C766.496 633.792 689.312 784 511.52 784c-179.808 0-255.296-153.184-250.496-335.904-28.416-70.816-46.688-113.696-62.688-165.312-34.016-109.504-23.008-154.784-14.592-155.808 18.016-2.208 70.112 82.4 70.112 82.4 0-48.992 25.184-112.896 79.808-159.008-26.4-8.096-85.696-29.888-71.616-53.792 11.392-19.296 196.192-12.288 249.504-6.304 53.312-6.016 238.112-12.992 249.504 6.304 14.112 23.808-45.312 45.696-71.616 53.792 54.592 46.208 79.808 110.112 79.808 159.008 0 0 52.096-84.608 70.112-82.4 8.512 1.088 19.488 46.4-14.496 155.808z"  horiz-adv-x="1024" />
      
      <glyph glyph-name="steam1" unicode="&#58924;" d="M904 563.424a139.68 139.68 0 0 0-139.424-139.456c-77.12 0-139.456 62.272-139.456 139.456s62.272 139.456 139.456 139.456a139.648 139.648 0 0 0 139.456-139.424zM464.032 139.456v0.704a142.144 142.144 0 0 1-142.144 142.144h-0.736 0.032c-10.272 0-20.544-1.12-30.88-3.424l59.424-24c58.304-23.456 86.848-89.152 63.424-147.424s-89.696-86.848-148-62.88c-23.456 9.152-46.848 18.88-70.304 28a143.104 143.104 0 0 1 126.24-76h0.736a142.144 142.144 0 0 1 142.144 142.144v0.736-0.032z m474.24 423.424a174.624 174.624 0 0 1-174.272 174.304h-0.032c-96.576 0-174.848-78.304-174.848-174.304a174.4 174.4 0 0 1 174.368-174.304h0.512-0.032 0.032a174.272 174.272 0 0 1 174.272 174.272v0.032z m85.728 0v-0.192a259.808 259.808 0 0 0-259.808-259.808h-0.192l-249.696-182.272c-9.152-98.304-92.576-175.424-193.12-175.424-92.576 0-170.848 65.728-189.696 153.152L0.064 150.88v245.152l222.272-89.696a187.328 187.328 0 0 0 98.144 27.424c7.296 0 14.496-0.416 21.6-1.216l-0.864 0.096 162.304 232.544c1.12 142.304 117.728 257.728 260.576 257.728a260.192 260.192 0 0 0 260-259.968z"  horiz-adv-x="1024" />
      
      <glyph glyph-name="rss1" unicode="&#58925;" d="M329.152 128q0-45.728-32-77.728t-77.728-32-77.728 32-32 77.728 32 77.728 77.728 32 77.728-32 32-77.728z m292.576-70.272q1.152-16-9.728-27.424-10.272-12-26.848-12h-77.152q-14.272 0-24.576 9.44t-11.424 23.712q-12.576 130.848-105.44 223.712t-223.712 105.44q-14.272 1.152-23.712 11.424t-9.44 24.576V493.76q0 16.576 12 26.848 9.728 9.728 24.576 9.728h2.848q91.424-7.424 174.848-46.016t148-103.712q65.152-64.576 103.712-148t46.016-174.848z m292.544-1.152q1.152-15.424-10.272-26.848-10.272-11.424-26.272-11.424h-81.728q-14.848 0-25.44 10.016t-11.136 24.288q-6.848 122.848-57.728 233.44t-132.288 192-192 132.288-233.44 58.272q-14.272 0.576-24.288 11.136t-10.016 24.864V786.336q0 16 11.424 26.272 10.272 10.272 25.152 10.272h1.728q149.728-7.424 286.56-68.576t243.136-168q106.848-106.272 168-243.136t68.576-286.56z"  horiz-adv-x="1024" />
      
      <glyph glyph-name="tag-fill" unicode="&#58926;" d="M938.016 437.184l-29.6 312.608a34.016 34.016 0 0 1-30.592 30.592l-312.992 29.6a10.24 10.24 0 0 1-7.616-2.912L88.928 338.784a9.952 9.952 0 0 1 0-14.112l363.808-363.808c1.888-1.888 4.384-2.912 7.104-2.912s5.184 0.992 7.104 2.912l468.288 468.288a10.368 10.368 0 0 1 2.784 8z m-239.008 71.808c-35.296 0-64 28.704-64 64s28.704 64 64 64 64-28.704 64-64-28.704-64-64-64z"  horiz-adv-x="1024" />
      
      <glyph glyph-name="youtube" unicode="&#58927;" d="M1099.296 647.84a137.248 137.248 0 0 1-96.576 97.184C917.536 768 575.968 768 575.968 768S234.4 768 149.216 745.024a137.248 137.248 0 0 1-96.576-97.184c-22.816-85.728-22.816-264.608-22.816-264.608s0-178.88 22.816-264.608c12.576-47.296 49.568-83.008 96.576-95.648C234.4 0 575.968 0 575.968 0s341.568 0 426.752 22.976c47.008 12.64 84 48.352 96.576 95.648 22.816 85.728 22.816 264.608 22.816 264.608s0 178.88-22.816 264.608zM464.288 220.832v324.8l285.472-162.4-285.472-162.4z"  horiz-adv-x="1152" />
      
      <glyph glyph-name="wechat-fill" unicode="&#58928;" d="M690.112 518.592c5.888 0 11.808-0.192 17.6-0.512-24.384 128.704-158.304 227.104-319.904 227.104C208.992 745.184 64 624.576 64 475.776c0-81.088 43.584-154.208 111.904-203.616a21.504 21.504 0 0 0 8-24.512c-5.504-20.288-14.208-52.8-14.592-54.304-0.704-2.592-1.696-5.216-1.696-7.904 0-5.888 4.8-10.784 10.816-10.784a12.512 12.512 0 0 1 6.208 2.016l70.912 40.896c5.312 3.104 11.008 4.992 17.216 4.992 3.2 0 6.4-0.512 9.504-1.408a383.712 383.712 0 0 1 123.488-14.4 205.184 205.184 0 0 0-10.912 66.016c0 135.808 132.192 245.792 295.296 245.792z m-194.304 86.496a43.136 43.136 0 0 0 0-86.208c-23.808 0-43.2 19.296-43.2 43.104s19.392 43.104 43.2 43.104z m-215.904-86.176a43.136 43.136 0 0 0 0 86.208 43.136 43.136 0 1 0 0-86.208z m586.784-415.616c56.896 41.216 93.216 102.016 93.216 169.696 0 124-120.8 224.512-269.888 224.512-148.992 0-269.888-100.512-269.888-224.512s120.8-224.512 269.888-224.512c30.784 0 60.608 4.384 88.096 12.288a26.624 26.624 0 0 0 22.208-2.88l59.104-34.016a10.08 10.08 0 0 1 5.216-1.696c2.4 0 4.704 0.896 6.4 2.592s2.592 4 2.592 6.4c0 2.208-0.896 4.384-1.408 6.592-0.288 1.216-7.616 28.288-12.192 45.312a22.016 22.016 0 0 0-0.896 5.696 18.432 18.432 0 0 0 7.616 14.496z m-266.496 205.504c-19.904 0-36 16.096-36 35.904s16.096 35.904 36 35.904 36-16.096 36-35.904c0-19.808-16.192-35.904-36-35.904z m179.904 0c-19.904 0-36 16.096-36 35.904s16.096 35.904 36 35.904 36-16.096 36-35.904a36.064 36.064 0 0 0-36-35.904z"  horiz-adv-x="1024" />
      
      <glyph glyph-name="weibo" unicode="&#58929;" d="M457.312 352.992c-68.096 17.696-144.992-16.192-174.592-76.192-30.112-61.216-0.992-129.088 67.808-151.296 71.2-23.008 155.2 12.192 184.416 78.304 28.704 64.608-7.2 131.008-77.6 149.216z m-52-156.192c-13.792-22.112-43.488-31.712-65.792-21.6-22.016 10.016-28.512 35.712-14.592 57.216 13.696 21.408 42.304 31.008 64.384 21.696 22.4-9.504 29.6-35.008 16-57.312z m45.504 58.496c-4.992-8.608-16.096-12.704-24.704-9.088-8.512 3.488-11.2 13.088-6.4 21.504 4.992 8.384 15.616 12.384 24.096 9.088 8.704-3.2 11.808-12.896 7.008-21.504z m334.496 197.216a28.576 28.576 0 0 1 35.904 18.304c11.808 36.608 4.384 78.4-23.2 108.992s-68.384 42.304-106.016 34.304a28.416 28.416 0 1 1 11.904-55.584 54.752 54.752 0 0 0 51.904-16.704c13.504-15.008 17.216-35.392 11.296-53.312-4.896-15.104 3.2-31.104 18.208-36z m99.776 205.984a228.608 228.608 0 0 1-217.696 70.496 33.12 33.12 0 1 1 13.888-64.8 162.624 162.624 0 0 0 154.816-50.112 162.912 162.912 0 0 0 34.016-159.104 33.152 33.152 0 0 1 21.312-41.696 33.056 33.056 0 0 1 41.6 21.184v0.096c24.096 75.392 8.896 161.088-47.904 223.904z m-156.096-261.504c-12.192 3.616-20.512 6.112-14.112 22.112 13.792 34.688 15.2 64.704 0.288 86.016-28 40.096-104.8 37.888-192.8 1.088 0 0-27.616-12.096-20.608 9.792 13.504 43.488 11.488 79.904-9.6 100.992-47.712 47.808-174.592-1.792-283.488-110.592-81.408-81.504-128.704-167.904-128.704-242.592 0-142.912 183.2-229.792 362.496-229.792 235.008 0 391.296 136.512 391.296 244.992 0 65.504-55.2 102.592-104.8 118.016z m-285.984-311.776c-143.008-14.112-266.496 50.496-275.808 144.512-9.312 93.888 99.2 181.504 242.208 195.616 143.008 14.208 266.496-50.496 275.808-144.384 9.216-93.888-99.2-181.504-242.208-195.712z"  horiz-adv-x="1024" />
      
      <glyph glyph-name="zhihu" unicode="&#58930;" d="M564.704 665.888v-572.896h60l25.216-71.392 106.4 71.392h131.488V665.888H564.704z m247.68-496.992h-59.904l-75.104-50.4-17.792 50.4h-18.016V587.712h170.688v-418.816z m-286.272 240.192h-132.8c2.112 44.896 4.288 104.288 6.592 172.896h130.912l-0.096 8.096c0 0.608-0.192 14.688-2.304 29.088-2.112 15.008-6.592 34.912-20.992 34.912H287.808c4.384 20.608 15.712 69.696 29.408 93.792l6.4 11.2-12.896 0.704c-0.8 0-19.616 0.896-41.408-10.592C233.6 730.176 217.6 692.768 210.624 664.768c-18.4-73.088-44.608-123.904-55.712-145.6-3.296-6.4-5.312-10.208-6.208-12.8-1.792-4.896-0.8-9.792 2.816-12.992 10.496-9.504 38.208 2.912 38.496 3.008l2.208 0.992c13.888 6.304 55.104 24.992 69.792 84.512H318.72c0.704-32.192 3.104-138.4 2.912-172.896H180.64l-2.112-1.504c-23.104-16.896-30.496-63.2-30.816-65.216l-1.408-9.216h167.008c-12.288-78.304-26.496-113.408-34.016-127.392-3.712-7.008-7.296-14.016-10.688-20.8-21.312-42.208-43.392-85.792-126.304-153.6-3.584-2.784-7.008-8-4.8-13.696 2.4-6.304 9.312-9.088 24.608-9.088 5.408 0 11.808 0.288 19.392 0.992 49.888 4.384 100.8 18.016 135.104 87.616a879.68 879.68 0 0 1 43.904 108.896l136.512-160 4.992 12c0.8 1.888 19.008 46.304 5.088 95.904l-0.512 1.792-108.096 123.008-22.016-16.608c6.4 26.112 10.592 49.888 12.512 71.104h158.688v8c0 40.096-18.496 63.904-19.2 64.896l-2.4 3.008z"  horiz-adv-x="1024" />
      
      <glyph glyph-name="zhanku" unicode="&#58931;" d="M398.08-36.512c-196.992 0-357.28 160.288-357.28 357.28S201.088 678.048 398.08 678.048c35.328 0 70.176-5.152 103.712-15.328l397.888 142.24a22.4 22.4 0 0 0 29.6-24.768l0.032 0.128c-11.264-69.472-46.016-134.848-99.52-188.704l111.488-0.672a22.4 22.4 0 0 0 19.328-33.408l0.064 0.096c-28-50.016-69.184-91.968-120.672-123.264l133.376-43.232a22.432 22.432 0 0 0 8.416-37.6c-60.512-56.736-140.192-88.32-231.328-91.936a356.64 356.64 0 0 0-352.384-298.048z m0 669.792c-172.32 0-312.512-140.192-312.512-312.512s140.192-312.512 312.512-312.512a311.968 311.968 0 0 1 310.592 277.792 22.4 22.4 0 0 0 22.24 19.904h1.856c71.936 0 136.032 18.976 187.712 55.232l-145.376 47.136a22.432 22.432 0 0 0-2.112 41.792l0.16 0.064c52.16 22.432 95.296 55.328 126.656 96.256l-129.568 0.8a22.4 22.4 0 0 0-13.344 40.224l0.064 0.032c59.232 44.448 99.872 99.744 119.104 161.536L509.792 618.08a21.824 21.824 0 0 0-14.624-0.16l0.16-0.032a305.792 305.792 0 0 1-96.96 15.424h-0.256z m25.152-479.968a182.88 182.88 0 0 0-115.584 41.248 22.4 22.4 0 0 0 2.88 36.64l0.096 0.064 258.752 149.408a22.368 22.368 0 0 0 33.248-15.584l0.032-0.128a182.912 182.912 0 0 0-88.608-187.2 181.952 181.952 0 0 0-90.848-24.416z m-58.208 57.664a135.968 135.968 0 0 1 58.208-12.896 136.8 136.8 0 0 1 69.12 18.752l-0.64-0.352a138.016 138.016 0 0 1 68.064 106.912l-194.72-112.448z m-186.176-42.912a130.72 130.72 0 0 0-66.112 17.92l0.608-0.32a131.84 131.84 0 0 0-63.872 134.976 22.4 22.4 0 0 0 33.376 15.68l-0.096 0.064L259.2 234.528a22.4 22.4 0 0 0 3.04-36.672l-0.032-0.032a131.104 131.104 0 0 0-83.328-29.76zM95.36 277.408a86.816 86.816 0 0 1 40.352-52.96c12.352-7.264 27.232-11.584 43.104-11.616 8.192 0 16.096 1.152 23.584 3.264l-0.608-0.16-106.464 61.472z"  horiz-adv-x="1024" />
      
      <glyph glyph-name="icon_home" unicode="&#59030;" d="M948.225842 455.988008L583.220546 740.460877c-41.44299 32.335765-99.463176 32.335765-141.008494 0.102329L75.774158 455.988008c-13.507345-10.539822-15.963226-29.982212-5.423404-43.489557 6.139702-7.879285 15.246927-11.972419 24.558809-11.972419 6.651344 0 13.302688 2.148896 19.033077 6.549015l61.090037 47.378036V34.395123c0-17.088838 13.916658-31.005496 31.005496-31.005496h612.230639c17.088838 0 31.005496 13.916658 31.005496 31.005496V454.555411l60.987709-47.582692c13.507345-10.539822 33.052064-8.083941 43.489557 5.423404 10.437494 13.507345 7.981613 33.052064-5.525732 43.591885zM454.491456 65.40062V241.81473c0 10.949136 8.902568 19.851704 19.851704 19.851703h76.746277c10.949136 0 19.851704-8.902568 19.851704-19.851703v-176.41411H454.491456z m332.567203 0H632.952134V241.81473c0 45.126811-36.735885 81.862696-81.965025 81.862696h-76.746278c-45.126811 0-81.965024-36.735885-81.965024-81.862696v-176.41411h-155.539123V502.547417l243.439193 189.000499c19.033077 14.837614 45.740781 14.837614 64.773858-0.102328L786.956331 502.854402v-437.453782z"  horiz-adv-x="1024" />
      
      <glyph glyph-name="unorderedlist1" unicode="&#59380;" d="M912 704H328c-4.4 0-8-3.6-8-8v-56c0-4.4 3.6-8 8-8h584c4.4 0 8 3.6 8 8v56c0 4.4-3.6 8-8 8zM912 420H328c-4.4 0-8-3.6-8-8v-56c0-4.4 3.6-8 8-8h584c4.4 0 8 3.6 8 8v56c0 4.4-3.6 8-8 8zM912 136H328c-4.4 0-8-3.6-8-8v-56c0-4.4 3.6-8 8-8h584c4.4 0 8 3.6 8 8v56c0 4.4-3.6 8-8 8zM160 668m-56 0a56 56 0 1 1 112 0 56 56 0 1 1-112 0ZM160 384m-56 0a56 56 0 1 1 112 0 56 56 0 1 1-112 0ZM160 100m-56 0a56 56 0 1 1 112 0 56 56 0 1 1-112 0Z"  horiz-adv-x="1024" />
      
      <glyph glyph-name="info-circle" unicode="&#59422;" d="M512-128A512 512 0 1 0 512 896a512 512 0 0 0 0-1024z m3.008 92.992a416 416 0 1 1 0 832 416 416 0 0 1 0-832zM448 448h128v-384H448V448z m0 256h128v-128H448V704z"  horiz-adv-x="1024" />
      
      <glyph glyph-name="QQyinle" unicode="&#59417;" d="M35.84 366.08c0-263.68 215.04-478.72 478.72-478.72 263.68 0 478.72 215.04 478.72 478.72C993.28 629.76 780.8 844.8 514.56 844.8 250.88 844.8 35.84 629.76 35.84 366.08zM660.48 885.76c-17.92-20.48-56.32-38.4-107.52-51.2-87.04-20.48-104.96-25.6-130.56-40.96-15.36-7.68-33.28-20.48-43.52-30.72-20.48-17.92-35.84-51.2-30.72-61.44 2.56-5.12 51.2-74.24 110.08-158.72 58.88-81.92 115.2-163.84 128-181.76 12.8-17.92 20.48-33.28 20.48-33.28 0-2.56-10.24 0-20.48 2.56-40.96 12.8-112.64 0-163.84-25.6-38.4-20.48-81.92-64-99.84-99.84-20.48-40.96-23.04-97.28-7.68-135.68 15.36-40.96 48.64-74.24 92.16-97.28 33.28-17.92 40.96-17.92 84.48-20.48 35.84-2.56 56.32 0 76.8 5.12 94.72 28.16 163.84 102.4 168.96 189.44 2.56 48.64-2.56 64-66.56 176.64-99.84 174.08-189.44 332.8-189.44 335.36 0 0 17.92 2.56 40.96 5.12 66.56 2.56 120.32 35.84 148.48 89.6 12.8 23.04 12.8 30.72 12.8 79.36 0 30.72-2.56 58.88-5.12 61.44-2.56 7.68-5.12 5.12-17.92-7.68z"  horiz-adv-x="1024" />
      
      <glyph glyph-name="QQyouxiang" unicode="&#59424;" d="M217.6 384l-135.68 138.24H2.56v-294.4h79.36v209.92l133.12-138.24 140.8 143.36v-209.92H435.2v61.44c-25.6 25.6-38.4 58.88-38.4 94.72 0 38.4 15.36 71.68 38.4 94.72v40.96h-79.36L217.6 384zM704 327.68c-17.92 0-30.72-15.36-30.72-15.36-56.32-51.2-138.24-58.88-202.24-17.92 30.72-46.08 81.92-76.8 140.8-76.8 48.64 0 94.72 20.48 125.44 56.32 0 0 2.56 12.8 2.56 20.48-5.12 20.48-17.92 33.28-35.84 33.28zM816.64 445.44h69.12V230.4h-69.12v215.04z m135.68 107.52h69.12V230.4h-69.12V552.96zM806.4 509.44c0-25.6 20.48-43.52 43.52-43.52 25.6 0 43.52 20.48 43.52 43.52 0 23.04-20.48 43.52-43.52 43.52s-43.52-17.92-43.52-43.52zM642.56 550.4s-12.8-2.56-20.48-7.68c-12.8-10.24-17.92-28.16-7.68-43.52 10.24-15.36 28.16-17.92 28.16-17.92 38.4-12.8 71.68-38.4 94.72-74.24 15.36-28.16 23.04-58.88 20.48-92.16 25.6 48.64 25.6 107.52-2.56 158.72-25.6 38.4-66.56 69.12-112.64 76.8zM512 337.92c10.24 15.36 2.56 33.28 2.56 33.28-10.24 40.96-2.56 81.92 17.92 117.76 15.36 28.16 40.96 48.64 69.12 64-53.76-2.56-104.96-30.72-135.68-81.92-23.04-40.96-28.16-89.6-12.8-135.68 0 0 7.68-7.68 17.92-12.8 12.8-7.68 30.72-2.56 40.96 15.36zM668.16 366.08c-2.56 12.8-12.8 23.04-12.8 23.04 2.56 12.8-2.56 12.8-2.56 12.8 0 38.4-33.28 35.84-33.28 35.84s-33.28 0-33.28-35.84c0 0-5.12-2.56-2.56-12.8 0 0-10.24-7.68-12.8-23.04 0 0-2.56-23.04 10.24-2.56 0 0 2.56-7.68 7.68-12.8 0 0-7.68-2.56-7.68-10.24 0 0 0-7.68 17.92-7.68 0 0 12.8 0 17.92 7.68h5.12c5.12-5.12 17.92-7.68 17.92-7.68 20.48 0 17.92 7.68 17.92 7.68 0 7.68-7.68 10.24-7.68 10.24 5.12 7.68 7.68 12.8 7.68 12.8 12.8-20.48 10.24 2.56 10.24 2.56z"  horiz-adv-x="1024" />
      
      <glyph glyph-name="shouye1" unicode="&#58898;" d="M949.408141 460.831876l-77.728292 67.567885 0 87.451748c0 17.253966-13.96199 31.233352-31.210839 31.233352s-31.210839-13.980409-31.210839-31.233352l0-33.189913L532.967544 822.836677c-0.01535 0.013303-0.031722 0.025583-0.048095 0.038886-2.004657 1.741667-4.186346 3.190669-6.487761 4.339842-0.002047 0.001023-0.005117 0.00307-0.007163 0.004093-0.421602 0.210801-0.848321 0.409322-1.278109 0.599657-0.046049 0.020466-0.092098 0.042979-0.13917 0.063445-0.381693 0.166799-0.76748 0.322341-1.154289 0.473791-0.094144 0.036839-0.187265 0.077771-0.282433 0.113587-0.341784 0.12996-0.686638 0.24764-1.032516 0.36532-0.140193 0.048095-0.278339 0.099261-0.418532 0.145309-0.309038 0.100284-0.621147 0.189312-0.933255 0.279363-0.176009 0.051165-0.352017 0.107447-0.529049 0.155543-0.298805 0.080841-0.599657 0.150426-0.900509 0.223081-0.188288 0.045025-0.375553 0.095167-0.563842 0.1361-0.315178 0.069585-0.633427 0.12689-0.950651 0.186242-0.173962 0.032746-0.346901 0.070608-0.51984 0.100284-0.364297 0.061398-0.729617 0.11154-1.094938 0.160659-0.125867 0.016373-0.25071 0.038886-0.3776 0.054235-0.452301 0.055259-0.906649 0.098237-1.360997 0.13303-0.036839 0.00307-0.074701 0.008186-0.11154 0.010233-4.9088 0.363274-9.899464-0.430812-14.536065-2.407839-0.052189-0.021489-0.104377-0.041956-0.155543-0.064468-0.330528-0.143263-0.656963-0.296759-0.983397-0.452301-0.149403-0.070608-0.299829-0.137123-0.448208-0.210801-0.237407-0.11768-0.470721-0.243547-0.706081-0.367367-0.234337-0.122797-0.468674-0.243547-0.699941-0.372483-0.157589-0.088004-0.313132-0.183172-0.468674-0.274246-0.303922-0.177032-0.607844-0.355087-0.906649-0.542352-0.096191-0.060375-0.189312-0.124843-0.284479-0.186242-0.352017-0.226151-0.701988-0.458441-1.045819-0.699941-0.060375-0.042979-0.119727-0.088004-0.180102-0.130983-0.370437-0.264013-0.737804-0.536212-1.098008-0.818645-0.055259-0.042979-0.10847-0.088004-0.162706-0.130983-0.356111-0.282433-0.708128-0.571005-1.054005-0.870834-0.021489-0.01842-0.042979-0.034792-0.064468-0.053212L205.507514 573.813067l0 31.627325c0 17.253966-13.96199 31.233352-31.210839 31.233352-17.248849 0-31.210839-13.980409-31.210839-31.233352l0-83.289961c0-0.844228 0.042979-1.677199 0.10847-2.50403l-67.661006-58.814524c-13.019525-11.31572-14.396895-31.04097-3.080152-44.054355 6.176676-7.106862 14.854313-10.746762 23.588231-10.746762 7.264451 0 14.564717 2.521426 20.476357 7.66661l395.9581 344.191086 395.9581-344.191086c5.907547-5.14416 13.20679-7.66661 20.476357-7.66661 8.723685 0 17.406438 3.6399 23.577998 10.746762C963.815269 429.791929 962.431759 449.516156 949.408141 460.831876zM845.633636 411.328415c-17.248849 0-31.233352-13.980409-31.233352-31.233352L814.400285 69.799972c0-39.133276-26.928303-72.197322-58.807361-72.197322L269.354658-2.397351c-31.879058 0-58.807361 33.064047-58.807361 72.197322L210.547297 380.09404c0 17.253966-13.985526 31.233352-31.233352 31.233352-17.248849 0-31.233352-13.980409-31.233352-31.233352L148.080593 69.799972c0-74.251098 54.405097-134.665049 121.275087-134.665049L755.592924-64.865077c66.86999 0 121.275087 60.413951 121.275087 134.665049L876.868011 380.09404C876.868011 397.348006 862.882486 411.328415 845.633636 411.328415zM390.586766 490.216113c-17.248849 0-31.233352-13.980409-31.233352-31.233352l0-30.470989c0-17.253966 13.985526-31.233352 31.233352-31.233352 17.248849 0 31.233352 13.980409 31.233352 31.233352l0 30.470989C421.820118 476.235704 407.835615 490.216113 390.586766 490.216113zM634.360815 490.216113c-17.248849 0-31.233352-13.980409-31.233352-31.233352l0-30.470989c0-17.253966 13.985526-31.233352 31.233352-31.233352 17.248849 0 31.233352 13.980409 31.233352 31.233352l0 30.470989C665.59519 476.235704 651.609665 490.216113 634.360815 490.216113zM589.269851 349.155401c-14.539134 9.31311-33.841759 5.053086-43.149752-9.455349-0.121773-0.193405-13.379729-19.449981-33.968649-19.449981-20.008706 0-32.454156 18.138102-33.276894 19.378349-9.175987 14.417361-28.269857 18.809391-42.834574 9.750061-14.650675-9.099239-19.145036-28.356838-10.044774-43.007513 11.214413-18.047028 41.980113-48.589648 86.157265-48.589648 43.958164 0 75.100442 30.308283 86.573751 48.223305C608.028077 320.53455 603.793636 339.852524 589.269851 349.155401z"  horiz-adv-x="1024" />
      
      <glyph glyph-name="qq1" unicode="&#58890;" d="M980.79827 117.894054c-21.144216 122.796973-109.844757 203.250162-109.844757 203.250162 12.647784 111.477622-33.792 131.26573-33.792 131.26573C827.392 797.331892 530.985514 791.32627 524.730811 791.160216 518.476108 791.32627 222.01427 797.331892 212.300108 452.409946c0 0-46.467459-19.788108-33.819676-131.26573 0 0-88.700541-80.453189-109.817081-203.250162 0 0-11.291676-207.484541 101.403676-25.40627 0 0 25.350919-69.161514 71.790703-131.26573 0 0-83.082378-28.256865-75.997405-101.625081 0 0-2.87827-81.836973 177.401081-76.218811 0 0 126.699243 9.852541 164.753297 63.515676l16.605405 0 0.276757 0 16.633081 0c38.026378-53.635459 164.725622-63.515676 164.725622-63.515676 180.224-5.618162 177.401081 76.218811 177.401081 76.218811 7.029622 73.368216-75.997405 101.625081-75.997405 101.625081 46.439784 62.104216 71.790703 131.26573 71.790703 131.26573C992.034595-89.590486 980.79827 117.894054 980.79827 117.894054z"  horiz-adv-x="1024" />
      
      <glyph glyph-name="QQyouxiang1" unicode="&#59739;" d="M217.6 384l-135.68 138.24H2.56v-294.4h79.36v209.92l133.12-138.24 140.8 143.36v-209.92H435.2v61.44c-25.6 25.6-38.4 58.88-38.4 94.72 0 38.4 15.36 71.68 38.4 94.72v40.96h-79.36L217.6 384zM704 327.68c-17.92 0-30.72-15.36-30.72-15.36-56.32-51.2-138.24-58.88-202.24-17.92 30.72-46.08 81.92-76.8 140.8-76.8 48.64 0 94.72 20.48 125.44 56.32 0 0 2.56 12.8 2.56 20.48-5.12 20.48-17.92 33.28-35.84 33.28zM816.64 445.44h69.12V230.4h-69.12v215.04z m135.68 107.52h69.12V230.4h-69.12V552.96zM806.4 509.44c0-25.6 20.48-43.52 43.52-43.52 25.6 0 43.52 20.48 43.52 43.52 0 23.04-20.48 43.52-43.52 43.52s-43.52-17.92-43.52-43.52zM642.56 550.4s-12.8-2.56-20.48-7.68c-12.8-10.24-17.92-28.16-7.68-43.52 10.24-15.36 28.16-17.92 28.16-17.92 38.4-12.8 71.68-38.4 94.72-74.24 15.36-28.16 23.04-58.88 20.48-92.16 25.6 48.64 25.6 107.52-2.56 158.72-25.6 38.4-66.56 69.12-112.64 76.8zM512 337.92c10.24 15.36 2.56 33.28 2.56 33.28-10.24 40.96-2.56 81.92 17.92 117.76 15.36 28.16 40.96 48.64 69.12 64-53.76-2.56-104.96-30.72-135.68-81.92-23.04-40.96-28.16-89.6-12.8-135.68 0 0 7.68-7.68 17.92-12.8 12.8-7.68 30.72-2.56 40.96 15.36zM668.16 366.08c-2.56 12.8-12.8 23.04-12.8 23.04 2.56 12.8-2.56 12.8-2.56 12.8 0 38.4-33.28 35.84-33.28 35.84s-33.28 0-33.28-35.84c0 0-5.12-2.56-2.56-12.8 0 0-10.24-7.68-12.8-23.04 0 0-2.56-23.04 10.24-2.56 0 0 2.56-7.68 7.68-12.8 0 0-7.68-2.56-7.68-10.24 0 0 0-7.68 17.92-7.68 0 0 12.8 0 17.92 7.68h5.12c5.12-5.12 17.92-7.68 17.92-7.68 20.48 0 17.92 7.68 17.92 7.68 0 7.68-7.68 10.24-7.68 10.24 5.12 7.68 7.68 12.8 7.68 12.8 12.8-20.48 10.24 2.56 10.24 2.56z"  horiz-adv-x="1024" />
      
      <glyph glyph-name="weibo1" unicode="&#58970;" d="M726.64 425.22c-34.78 6.72-17.845 25.088-17.845 25.088s34.023 55.406-6.805 95.73c-50.5 49.878-173.429-6.276-173.429-6.276-46.877-14.333-34.478 6.572-27.824 42.116 0 41.965-14.518 112.899-139.563 71.084-124.894-42.263-232.1-189.958-232.1-189.958-74.54-98.118-64.713-173.983-64.713-173.983 18.596-167.562 198.984-213.557 339.303-224.462C551.24 53.21 750.53 114.741 810.857 241.381c60.486 126.791-49.29 176.97-84.217 183.838zM414.55 111.751c-146.518-6.718-265.061 65.71-265.061 162.184 0 96.624 118.543 173.984 265.061 180.706 146.669 6.718 265.364-53.018 265.364-149.342 0-96.327-118.695-186.976-265.364-193.548zM385.367 391.17c-147.425-17.023-130.338-153.224-130.338-153.224s-1.51-43.16 39.467-65.114c86.183-46.145 175.093-18.216 219.849 38.98 44.907 57.047 18.6 196.235-128.978 179.358zM348.17 199.862c-27.516-3.135-49.743 12.547-49.743 35.248 0 22.55 19.654 46.296 47.173 49.13 31.604 2.99 52.167-14.934 52.167-37.782 0.151-22.55-22.228-43.46-49.597-46.596z m86.946 73.03c-9.377-6.87-20.866-5.975-25.707 2.388-5.141 8.067-3.175 20.91 6.2 27.628 10.886 8.067 22.228 5.674 27.217-2.388 4.841-8.067 1.36-20.458-7.71-27.628zM798.459 484.21c11.946 0 21.927 8.66 23.74 20.008 0.153 0.897 0.3 1.645 0.3 2.542 17.997 159.646-132.605 132.165-132.605 132.165-13.306 0-24.04-10.6-24.04-24.042 0-13.144 10.734-23.748 24.04-23.748 108.112 23.598 84.375-83.18 84.375-83.18-0.152-13.144 10.733-23.745 24.19-23.745z m-17.54 278.671c-52.013 12.096-105.693 1.64-120.662-1.195-1.21-0.15-2.266-1.198-3.323-1.344-0.457-0.151-0.908-0.597-0.908-0.597-14.818-4.185-25.555-17.624-25.555-33.603 0-18.968 15.573-34.646 35.078-34.646 0 0 18.9 2.538 31.756 7.466 12.699 5.076 120.657 3.732 174.185-84.976 29.186-64.813 12.856-108.123 10.737-115.141 0 0-6.954-16.877-6.954-33.452 0-19.115 15.574-31.215 35.078-31.215 16.18 0 29.786 2.243 33.718 29.273h0.152c57.761 189.215-70.16 278.072-163.302 299.43z m0 0"  horiz-adv-x="1024" />
      
      <glyph glyph-name="steam" unicode="&#59014;" d="M511.104 896C242.261333 896 21.802667 688.64 0.938667 425.088l274.432-113.408a144.512 144.512 0 0 0 81.578666 25.173333c2.688 0 5.333333-0.170667 8.021334-0.256l122.069333 176.725334V515.84a193.194667 193.194667 0 0 0 193.024 193.024c106.410667 0 193.024-86.656 193.024-193.152s-86.613333-193.066667-193.024-193.066667h-4.48l-173.909333-124.202666c0-2.218667 0.170667-4.48 0.170666-6.784a144.725333 144.725333 0 0 0-144.64-144.896 145.578667 145.578667 0 0 0-142.122666 116.352L18.602667 244.48C79.445333 29.568 276.736-128 511.104-128c282.752 0 511.957333 229.248 511.957333 512S793.813333 896 511.104 896zM321.706667 119.04l-62.848 26.026667c11.178667-23.168 30.464-42.624 56.064-53.333334a108.842667 108.842667 0 0 1 142.378666 141.824 108.672 108.672 0 0 1-138.88 60.288l64.981334-26.88a80.128 80.128 0 0 0-61.653334-147.925333H321.706667z m487.04 396.928a128.810667 128.810667 0 0 1-128.64 128.64 128.64 128.64 0 1 1 128.64-128.64z m-224.981334 0.213333a96.597333 96.597333 0 1 0 193.322667 0 96.725333 96.725333 0 0 0-96.682667-96.64 96.597333 96.597333 0 0 0-96.64 96.64z"  horiz-adv-x="1024" />
      
      <glyph glyph-name="zhanku1" unicode="&#58919;" d="M398.072-36.511c-197.003 0-357.28 160.274-357.28 357.276s160.277 357.277 357.28 357.277c35.313 0 70.166-5.15 103.72-15.323l397.89 142.25a22.378 22.378 0 0 0 29.626-24.659c-11.27-69.468-46.026-134.858-99.536-188.72l111.473-0.677a22.378 22.378 0 0 0 19.392-33.308c-27.995-50.02-69.184-91.956-120.667-123.273l133.388-43.238a22.382 22.382 0 0 0 8.405-37.615c-60.518-56.732-140.2-88.333-231.322-91.943-28.45-171.248-176.587-298.047-352.369-298.047z m0 669.796c-172.326 0-312.523-140.197-312.523-312.523 0-172.323 140.197-312.52 312.523-312.52 159.564 0 293.086 119.42 310.582 277.789a22.382 22.382 0 0 0 22.244 19.92h0.096l1.746-0.003c71.924 0 136.038 18.976 187.722 55.239l-145.363 47.122a22.378 22.378 0 0 0-1.947 41.845c52.154 22.445 95.306 55.341 126.658 96.249l-129.555 0.786a22.378 22.378 0 0 0-13.292 40.278c59.245 44.462 99.861 99.734 119.1 161.52L509.781 618.045a22.426 22.426 0 0 0-14.488-0.198 312.283 312.283 0 0 1-97.221 15.438zM423.216 153.318h-0.007c-42.077 0.003-83.12 14.658-115.571 41.262a22.378 22.378 0 0 0 3.002 36.685l258.748 149.394a22.382 22.382 0 0 0 33.27-15.741c12.234-74.303-23.376-149.53-88.606-187.195-27.656-15.962-59.066-24.405-90.836-24.405zM365.01 210.98a138.093 138.093 0 0 1 58.2-12.902 137.102 137.102 0 0 1 68.46 18.414c39.128 22.59 64.124 63.097 68.07 106.923L365.01 210.98z m-186.172-42.902a131.2 131.2 0 0 0-65.501 17.596c-47.033 27.157-72.704 81.396-63.88 134.97a22.372 22.372 0 0 0 33.27 15.741L259.16 234.516a22.378 22.378 0 0 0 3.002-36.684 131.728 131.728 0 0 0-83.324-29.754zM95.367 277.406c5.796-21.89 20.054-41.253 40.348-52.97a86.377 86.377 0 0 1 43.123-11.601 86.732 86.732 0 0 1 22.982 3.107L95.367 277.406z"  horiz-adv-x="1024" />
      
      <glyph glyph-name="youxiang" unicode="&#58885;" d="M993.882353 624.941176l-481.882353-240.941176-481.882353 240.941176v120.470589h963.764706v-120.470589zM30.117647 564.705882v-542.117647h963.764706v542.117647l-481.882353-240.941176-481.882353 240.941176z"  horiz-adv-x="1024" />
      
      <glyph glyph-name="zhihu1" unicode="&#58883;" d="M925.696 896H98.304C44.2368 896 0 851.7632 0 797.696v-827.392c0-54.0672 44.2368-98.304 98.304-98.304h827.392c54.0672 0 98.304 44.2368 98.304 98.304V797.696c0 54.0672-44.2368 98.304-98.304 98.304zM524.71808 363.390976h-139.450368a823.01952 823.01952 0 0 0-4.384768-39.467008c24.557568-40.3456 45.017088-71.041024 61.392896-92.090368 18.706432-28.06784 48.238592-62.861312 88.582144-104.370176 9.345024-8.194048 14.032896-19.884032 14.032896-35.08224-4.685824-16.375808-13.746176-25.434112-27.189248-27.189248-11.702272 0.591872-23.103488 6.426624-34.203648 17.543168-18.71872 18.704384-38.588416 42.973184-59.639808 72.794112-18.130944 24.557568-38.588416 56.129536-61.392896 94.72-8.194048-26.90048-19.00544-52.922368-32.45056-78.057472-31.574016-62.572544-76.302336-117.52448-134.187008-164.88448-8.194048-11.689984-16.375808-17.54112-24.557568-17.54112-23.98208 1.179648-36.548608 11.403264-37.711872 30.697472 0.575488 6.438912 4.083712 13.45536 10.524672 21.049344 73.672704 65.476608 123.662336 132.72064 149.97504 201.719808 15.785984 40.343552 25.720832 80.388096 29.81888 120.15616H171.268096c-20.473856 0-30.695424 10.21952-30.695424 30.695424 0 20.45952 10.223616 30.695424 30.695424 30.695424h154.359808v199.090176h-72.794112c-0.587776-4.096-1.466368-7.892992-2.63168-11.399168-14.032896-46.784512-32.16384-86.540288-54.376448-119.277568-11.702272-11.112448-22.226944-16.662528-31.574016-16.662528-22.802432 0-34.203648 10.21952-34.203648 30.695424 0 3.508224 3.508224 9.347072 10.524672 17.54112 23.37792 33.329152 40.042496 68.108288 49.99168 104.370176 9.345024 32.735232 15.484928 73.08288 18.419712 121.030656 0 18.704384 10.223616 28.065792 30.695424 28.065792 20.45952 0 30.695424-9.35936 30.695424-28.065792-1.1776-23.98208-3.219456-45.606912-6.139904-64.90112h239.433728c20.45952 0 30.697472-10.237952 30.697472-30.697472 0-20.471808-10.237952-30.697472-30.697472-30.697472h-116.645888v-199.090176h137.695232c20.45952 0 30.695424-10.233856 30.695424-30.695424 0-20.475904-10.237952-30.695424-30.695424-30.695424z m369.23392-294.68672c0-38.592512-20.473856-57.88672-61.392896-57.88672h-185.055232c-38.588416 0-57.884672 19.294208-57.884672 57.88672V658.075648c0 36.247552 19.296256 54.376448 57.884672 54.376448h185.055232c40.921088 0 61.392896-18.128896 61.392896-54.376448v-589.371392zM805.369856 654.567424h-130.680832c-13.457408 0-20.170752-7.892992-20.170752-23.681024v-534.994944c0-18.128896 6.715392-27.1872 20.170752-27.1872h130.680832c15.785984 0 23.678976 9.058304 23.678976 27.1872V630.8864c0.002048 15.788032-7.890944 23.681024-23.678976 23.681024z"  horiz-adv-x="1024" />
      
      <glyph glyph-name="wangyiyunyinle" unicode="&#58903;" d="M116.93928297 888.83756247c-49.71026963-23.19812583-96.93502578-75.39390894-114.33362015-127.58969205-19.88410785-56.33830558-19.88410785-709.19984672 0-765.53815229 18.22709886-53.8527921 64.62335052-105.22007072 116.81913363-127.58969205l44.73924266-19.88410786h715.82788267l42.25372919 19.88410786c49.71026963 23.19812583 96.93502578 75.39390894 114.33362014 127.58969205 19.88410785 56.33830558 19.88410785 709.19984672 0 765.53815229-17.39859437 52.19578311-64.62335052 104.39156622-114.33362014 127.58969205l-42.25372919 19.88410784h-720.79890963l-42.25372918-19.88410784z m590.72370409-89.47848533c33.96868425-14.08457639 68.76587298-48.88176514 68.76587299-67.9373685s-22.36962133-46.39625165-38.11120672-46.39625166c-5.79953147 0-25.68363931 7.45654045-43.91073816 17.39859438-40.59672019 20.71261235-58.82381906 18.22709886-74.56540445-9.94205393-9.94205392-18.22709886-10.77055842-28.1691528-2.48551348-55.50980108 9.11354943-30.65466627 13.2560719-33.96868425 49.71026962-43.08223368 93.62100781-22.36962133 156.58734933-78.70792691 193.87005156-173.1574392 24.02663031-61.30933253 26.51214381-191.38453808 4.14252247-253.52237512-28.99765728-82.85044939-109.36259318-161.5583763-204.64060998-198.01257404-50.53877413-19.88410785-152.44482686-26.51214381-207.95462794-13.25607189-249.37985264 57.99531457-376.96954469 373.65552672-243.58032119 601.49426252 43.91073817 75.39390894 163.21538528 177.29996169 207.12612346 177.29996167 9.94205392 0 24.85513482-7.45654045 32.31167526-15.74158537 26.51214381-28.99765728 13.2560719-50.53877413-57.99531458-101.07754826-101.07754825-72.07989097-144.98828642-153.27333136-144.98828642-267.6069515 0-92.79250331 34.79718875-172.32893472 104.39156623-236.12378073 57.16681008-52.19578311 102.73455724-70.42288197 182.27098864-71.25138648 111.01960217 0 190.55603358 47.22475615 236.95228524 140.84576395 24.85513482 50.53877413 25.68363931 57.16681008 22.36962133 127.58969205-3.31401797 63.79484603-6.62803595 79.53643141-28.16915279 113.50511565-23.19812583 37.28270222-94.4495123 88.64998083-106.8770797 77.05091793-2.48551348-3.31401797 2.48551348-34.79718875 12.4275674-70.42288198 9.11354943-35.62569324 16.57008987-72.07989097 16.57008988-81.19344039 0-67.108864-52.19578311-136.70324148-115.16212464-154.10183585-106.8770797-28.99765728-193.87005155 53.02428761-193.87005156 183.09949313 0 90.30698983 44.73924267 158.24435831 127.58969205 195.52706055l29.82616178 13.25607189-3.31401797 71.25138649c-4.14252247 64.62335052-2.48551348 73.73689995 14.08457639 95.27801678 40.59672019 50.53877413 106.8770797 68.76587298 163.21538528 44.73924267zM514.62144 478.72783803c-26.51214381-16.57008987-53.02428761-67.9373685-53.02428761-105.22007072 0-31.48317076 21.54111683-75.39390894 41.4252247-86.16446736 36.45419773-19.88410785 91.13549431 14.08457639 91.13549432 56.33830558 0 12.42756741-6.62803595 51.36727861-14.08457639 86.99297186-16.57008987 70.42288197-22.36962133 74.56540445-65.45185502 48.05326064z"  horiz-adv-x="1028" />
      
      <glyph glyph-name="qqyinle" unicode="&#59831;" d="M747.434667 810.666667l13.738666-83.712A429.056 429.056 0 0 0 938.666667 380.330667c0-235.776-191.232-426.666667-426.666667-426.666667-235.776 0-426.666667 191.232-426.666667 426.666667 0 235.776 191.232 426.666667 426.666667 426.666666 55.125333 0 107.989333-10.538667 156.416-29.568l13.610667-5.632-10.496-5.077333c-32.682667-15.274667-74.752-31.018667-123.733334-40.789333-119.509333-23.765333-187.52-15.061333-187.52-15.061334l-2.986666-36.181333 211.882666-357.333333-1.578666 0.170666c-4.949333 0.426667-20.309333 1.621333-40.234667 1.706667h-7.125333c-30.08-0.128-68.266667-2.986667-96.64-13.952-58.282667-22.4-108.842667-82.688-96.810667-160.426667 11.648-75.946667 74.197333-131.669333 165.589333-132.992h0.341334l9.898666 0.042667c108.842667 3.029333 165.461333 39.893333 193.578667 99.84 23.04 48.981333 7.509333 101.077333 6.144 105.514667l-0.128 0.298666-190.549333 329.856s81.066667 45.909333 126.933333 87.765334c96.853333 88.106667 108.245333 170.496 108.8 175.274666L747.434667 810.666667z"  horiz-adv-x="1024" />
      
      <glyph glyph-name="github" unicode="&#59017;" d="M512 853.333333A464.64 464.64 0 0 1 42.666667 393.813333 460.373333 460.373333 0 0 1 363.52-42.666667c23.466667-4.266667 32 9.813333 32 22.186667v78.08c-130.56-27.733333-158.293333 61.44-158.293333 61.44a122.026667 122.026667 0 0 1-52.053334 67.413333c-42.666667 28.16 3.413333 27.733333 3.413334 27.733334a98.56 98.56 0 0 0 71.68-47.36 101.12 101.12 0 0 1 136.533333-37.973334 99.413333 99.413333 0 0 0 29.866667 61.44c-104.106667 11.52-213.333333 50.773333-213.333334 226.986667a177.066667 177.066667 0 0 0 47.36 124.16 161.28 161.28 0 0 0 4.693334 121.173333s39.68 12.373333 128-46.933333a455.68 455.68 0 0 0 234.666666 0c89.6 59.306667 128 46.933333 128 46.933333a161.28 161.28 0 0 0 4.693334-121.173333A177.066667 177.066667 0 0 0 810.666667 418.133333c0-176.64-110.08-215.466667-213.333334-226.986666a106.666667 106.666667 0 0 0 32-85.333334v-125.866666c0-14.933333 8.533333-26.88 32-22.186667A460.8 460.8 0 0 1 981.333333 393.813333 464.64 464.64 0 0 1 512 853.333333"  horiz-adv-x="1024" />
      
      <glyph glyph-name="arrow-left" unicode="&#58888;" d="M249.11327748 383.83786970000006l45.71492534-45.74370563 0.19570687 0.19378873L729.17179718-95.89543126000001l45.71492533 45.71492532-434.1526847 434.18050594L774.88672251 818.18434314l-45.71492533 45.7101281-434.14788749-434.17954592-0.19570687 0.19378874-45.71492533-45.7485028 0.16213033-0.16117032L249.11327748 383.83786970000006zM249.11327748 383.83786970000006"  horiz-adv-x="1024" />
      
      <glyph glyph-name="arrow-left1" unicode="&#58896;" d="M758.45630236 384.15199716l-42.8577425 42.88472402-0.18347519-0.18167693L308.40144014 833.90196681l-42.85774249-42.85774249 407.0181419-407.04422432L265.54369765-23.047821689999978l42.85774249-42.8532451 407.01364453 407.0433243 0.18347519-0.18167694 42.85774249 42.88922137-0.15199718 0.15109718L758.45630236 384.15199716zM758.45630236 384.15199716"  horiz-adv-x="1024" />
      
      <glyph glyph-name="tu" unicode="&#59052;" d="M79.96928 840.03328H949.1456v-923.3152H875.6224v49.00864H153.4976v-49.00864H79.9744V840.0384zM153.4976 770.59072V31.0784H875.6224V770.59072H153.4976z m32.3072-241.42336c95.29344 70.784 170.15808 147.01056 224.61952 228.70528l65.34656-28.59008c-10.89536-19.072-24.51456-36.77184-40.84736-53.0944h347.136v-61.2608c-51.73248-62.62272-110.2592-114.36544-175.60064-155.19744 73.50272-29.952 156.544-49.00864 249.11872-57.16992-5.45792-13.6192-13.62944-32.67072-24.51456-57.18528 2.72384 5.44256 0 0-8.15616-16.3328-114.37056 21.77536-209.664 51.72736-285.89056 89.856-84.39808-43.5712-196.02944-80.32256-334.87872-110.27456-5.4528 19.05664-16.35328 42.1888-32.67072 69.4272 106.17856 16.3328 204.19072 43.56608 294.04672 81.67936-51.74272 38.11328-93.93664 74.88-126.60736 110.26944-32.67072-35.38944-66.70336-65.34144-102.0928-89.83552-27.2384 27.2128-43.5712 43.55072-49.00864 49.00352z m73.50272-379.56608l20.4288 65.34144c21.78048-2.71872 59.88864-8.17664 114.3552-16.3328 187.8528-27.2384 307.64544-47.65184 359.39328-61.25056l-24.51456-73.5232c-133.40672 32.67584-289.96608 61.25056-469.66272 85.76z m102.11328 126.60736l20.41344 69.4272c10.88-2.72384 28.57472-5.44256 53.08928-8.1664 125.24544-21.79072 209.64864-36.7616 253.21472-44.928l-24.50944-69.42208c-103.45984 21.77536-204.19584 39.4752-302.208 53.08928z m326.71744 334.6432H390.00064c40.832-46.3104 89.84064-84.41856 147.0208-114.3552 62.62784 35.38944 112.9984 73.50272 151.12192 114.35008z"  horiz-adv-x="1024" />
      
      <glyph glyph-name="top" unicode="&#58911;" d="M926.254545 122.95757566666668L505.018182 562.8121216666667 83.781818 122.95757566666668 16.290909 188.12121166666668l488.727273 507.345455 488.727273-507.345455z"  horiz-adv-x="1024" />
      
      <glyph glyph-name="weixin" unicode="&#58958;" d="M303.877537 605.327121c-22.234942 0-46.17371-15.419634-46.17371-37.569384s22.234942-37.569384 46.17371-37.569384c22.234942 0 37.569384 15.419634 37.569385 37.569384s-13.630616 37.569384-37.569385 37.569384zM616.700166 384.851913c-15.419634 0-30.754077-15.419634-30.754076-30.754076s15.419634-30.754077 30.754076-30.754077c22.234942 0 37.569384 15.419634 37.569385 30.754077s-15.419634 30.754077-37.569385 30.754076zM1038.908486 740.355408C1038.908486 825.887521 968.796007 895.914809 883.349085 895.914809h-712.796007c-87.150749 1.703827-157.263228-68.408652-157.263228-155.559401v-712.796007c0-85.446922 70.112479-155.559401 155.559401-155.559401H881.645258c41.06223 0 80.335441 17.123461 111.089517 46.17371 29.05025 29.05025 46.17371 68.408652 46.173711 111.089518V740.355408zM402.955075 217.365724c-37.569384 0-68.408652 8.519135-105.978037 15.419634l-105.978036-52.989019 30.754076 92.26223c-76.927787 51.285191-123.101498 119.693844-123.101497 203.436938 0 145.336439 136.732113 259.833611 304.303494 259.833611 150.44792 0 280.364725-90.558403 307.711148-213.6599-10.222962 1.703827-18.827288 1.703827-29.05025 1.703827-145.336439 0-259.833611-107.681864-259.83361-241.006323 0-22.234942 3.407654-42.766057 10.222961-63.21198-10.222962-1.789018-18.742097-1.789018-29.050249-1.789018z m449.554742-107.767055l22.234942-76.927787-83.743095 46.17371c-30.754077-6.815308-61.508153-15.419634-90.558403-15.419634-145.336439 0-259.833611 99.162729-259.83361 220.475208S555.106822 504.460566 700.443261 504.460566c136.732113 0 258.129784-99.162729 258.129784-220.475208-0.085191-66.619634-44.469884-128.212978-106.063228-174.386689z m-68.323461 275.253244c-15.419634 0-30.754077-15.419634-30.754076-30.754076s15.419634-30.754077 30.754076-30.754077c22.234942 0 37.569384 15.419634 37.569384 30.754077s-15.334443 30.754077-37.569384 30.754076z m-266.648918 145.251248c22.234942 0 37.569384 15.419634 37.569384 37.569385s-15.419634 37.569384-37.569384 37.569384-46.17371-15.419634-46.173711-37.569384 23.938769-37.569384 46.173711-37.569385z"  horiz-adv-x="1052" />
      
      <glyph glyph-name="Youtube" unicode="&#58920;" d="M153.6 896h716.8c84.8256 0 153.6-68.7744 153.6-153.6v-716.8c0-84.8256-68.7744-153.6-153.6-153.6H153.6C68.7744-128 0-59.2256 0 25.6V742.4C0 827.2256 68.7744 896 153.6 896z m545.4848-281.6H324.9152C251.52 614.4 192 554.88 192 481.4848v-187.0464c0-73.408 59.52-132.9152 132.9152-132.9152h374.1696C772.48 161.5232 832 221.0304 832 294.4384V481.4848C832 554.88 772.48 614.4 699.0848 614.4zM609.1904 378.8544l-175.0144-83.456a7.0272 7.0272 0 0 0-10.048 6.336v172.16c0 5.2352 5.5296 8.6272 10.2016 6.2592l175.0144-88.6912c5.1968-2.6368 5.1072-10.0864-0.1536-12.608z"  horiz-adv-x="1024" />
      
      <glyph glyph-name="rss" unicode="&#58880;" d="M329.091621 128q0-45.714286-32-77.714286t-77.714286-32-77.714286 32-32 77.714286 32 77.714286 77.714286 32 77.714286-32 32-77.714286zM621.663049 57.70971399999996q1.133714-16.018286-9.728-27.428571-10.276571-11.995429-26.843429-11.995429l-77.129143 0q-14.299429 0-24.576 9.435429t-11.446857 23.698286q-12.580571 130.852571-105.435429 223.707429t-223.707429 105.435429q-14.299429 1.133714-23.698286 11.446857t-9.435429 24.576l0 77.129143q0 16.566857 11.995429 26.843429 9.728 9.728 24.576 9.728l2.852571 0q91.428571-7.424 174.848-46.006857t148.004571-103.716571q65.133714-64.585143 103.716571-148.004571t46.006857-174.848zM914.234478 56.57600000000002q1.133714-15.433143-10.276571-26.843429-10.276571-11.446857-26.294857-11.446857l-81.700571 0q-14.848 0-25.417143 9.984t-11.154286 24.283429q-6.838857 122.843429-57.709714 233.435429t-132.278857 192-192 132.278857-233.435429 58.294857q-14.299429 0.585143-24.283429 11.154286t-9.984 24.868571l0 81.700571q0 16.018286 11.446857 26.294857 10.276571 10.276571 25.161143 10.276571l1.718857 0q149.723429-7.424 286.573714-68.571429t243.126857-168.009143q106.861714-106.276571 168.009143-243.126857t68.571429-286.573714z"  horiz-adv-x="1024" />
      
      <glyph glyph-name="ellipsis" unicode="&#58892;" d="M147.012 465.11c-44.791 0-81.109-36.305-81.109-81.11 0-44.779 36.317-81.108 81.109-81.108 44.792 0 81.109 36.33 81.109 81.108 0 44.805-36.316 81.11-81.11 81.11z m364.987 0c-44.79 0-81.108-36.305-81.108-81.11 0-44.779 36.316-81.108 81.108-81.108 44.793 0 81.11 36.33 81.11 81.108 0 44.805-36.317 81.11-81.11 81.11z m364.988 0c-44.79 0-81.108-36.305-81.108-81.11 0-44.779 36.316-81.108 81.108-81.108s81.109 36.33 81.109 81.108c-0.002 44.805-36.318 81.11-81.109 81.11z"  horiz-adv-x="1024" />
      
      <glyph glyph-name="bilibili_tv" unicode="&#58895;" d="M868.929504 724.887728h-171.112272L775.35248 802.422977c13.368146 13.368146 13.368146 32.083551 0 45.451697s-32.083551 13.368146-45.451697 0l-131.007833-131.007833h-128.334203l-131.007833 131.007833c-10.694517 13.368146-26.736292 16.041775-42.778068 8.020887-2.673629 0-2.673629-2.673629-5.347259-5.347258-13.368146-13.368146-13.368146-32.083551 0-45.451697l80.208878-80.208878H200.522193c-93.577023 0-171.112272-77.535248-171.112271-171.112271v-425.10705C29.409922 37.765013 106.94517-39.770235 200.522193-39.770235h26.736293c0-32.083551 26.736292-56.146214 56.146214-56.146214s56.146214 26.736292 56.146214 56.146214h395.697128c2.673629-32.083551 29.409922-56.146214 61.493472-53.472585 29.409922 2.673629 50.798956 24.062663 53.472585 53.472585h21.389034c93.577023 0 171.112272 77.535248 171.112272 171.112272V556.449086c-2.673629 93.577023-80.208877 168.438642-173.785901 168.438642z m-5.347259-660.386423H211.21671c-34.75718 0-61.493473 29.409922-64.167102 64.167102l-2.673629 433.127938c0 34.75718 29.409922 64.167102 64.167102 64.167101h652.365535c34.75718 0 61.493473-29.409922 64.167102-64.167101l2.673629-433.127938c-2.673629-37.430809-29.409922-64.167102-64.167102-64.167102zM422.43342 478.913838l16.041776-80.208877-213.89034-40.104439-16.041775 80.208877 213.890339 40.104439z m205.869452-80.208877l16.041776 80.208877 213.890339-40.104439-16.041776-80.208877-213.890339 40.104439z m42.778068-168.438642c0-2.673629 0-8.020888-2.673629-10.694517-13.368146-29.409922-42.778068-48.125326-77.535248-50.798956-21.389034 0-42.778068 10.694517-56.146214 26.736292-16.041775-16.041775-34.75718-26.736292-56.146215-26.736292-32.083551 2.673629-61.493473 21.389034-77.535248 50.798956 0 2.673629-2.673629 5.347258-2.673629 10.694517 0 10.694517 8.020888 18.715405 18.715405 21.389033h2.673629c8.020888 0 13.368146-2.673629 16.041776-10.694516 0 0 21.389034-29.409922 40.104438-29.409922 37.430809 0 37.430809 32.083551 58.819844 56.146214 24.062663-26.736292 24.062663-56.146214 58.819843-56.146214 24.062663 0 40.104439 29.409922 40.104439 29.409922 2.673629 5.347258 10.694517 10.694517 16.041775 10.694516 10.694517 2.673629 18.715405-5.347258 21.389034-16.041775v-5.347258z"  horiz-adv-x="1069" />
      
      <glyph glyph-name="unorderedlist" unicode="&#58881;" d="M912 704H328c-4.4 0-8-3.6-8-8v-56c0-4.4 3.6-8 8-8h584c4.4 0 8 3.6 8 8v56c0 4.4-3.6 8-8 8zM912 420H328c-4.4 0-8-3.6-8-8v-56c0-4.4 3.6-8 8-8h584c4.4 0 8 3.6 8 8v56c0 4.4-3.6 8-8 8zM912 136H328c-4.4 0-8-3.6-8-8v-56c0-4.4 3.6-8 8-8h584c4.4 0 8 3.6 8 8v56c0 4.4-3.6 8-8 8zM160 668m-56 0a56 56 0 1 1 112 0 56 56 0 1 1-112 0ZM160 384m-56 0a56 56 0 1 1 112 0 56 56 0 1 1-112 0ZM160 100m-56 0a56 56 0 1 1 112 0 56 56 0 1 1-112 0Z"  horiz-adv-x="1024" />
      
      <glyph glyph-name="menu" unicode="&#58899;" d="M347.875556 810.666667H216.632889A131.697778 131.697778 0 0 1 85.333333 679.367111v-131.299555a131.697778 131.697778 0 0 1 131.299556-131.299556h131.299555a131.640889 131.640889 0 0 1 131.299556 131.299556V679.367111A131.754667 131.754667 0 0 1 347.875556 810.666667z m459.491555 0h-131.299555a131.697778 131.697778 0 0 1-131.356445-131.299556v-131.299555a131.697778 131.697778 0 0 1 131.356445-131.299556h131.299555A131.697778 131.697778 0 0 1 938.666667 548.067556V679.367111A131.697778 131.697778 0 0 1 807.367111 810.666667zM347.875556 351.232H216.632889A131.754667 131.754667 0 0 1 85.333333 219.875556v-131.299556a131.697778 131.697778 0 0 1 131.299556-131.299556h131.299555a131.697778 131.697778 0 0 1 131.299556 131.299556v131.299556a131.754667 131.754667 0 0 1-131.356444 131.356444z m459.491555 0h-131.299555a131.754667 131.754667 0 0 1-131.356445-131.356444v-131.299556a131.754667 131.754667 0 0 1 131.356445-131.299556h131.299555a131.697778 131.697778 0 0 1 131.299556 131.299556v131.299556a131.754667 131.754667 0 0 1-131.299556 131.356444z m0 0"  horiz-adv-x="1024" />
      
      <glyph glyph-name="dribbbleblack" unicode="&#59001;" d="M756.342188 21.389351c-4.452074 26.356279-27.758683 154.709579-85.123659 312.268486 141.175274 22.572016 263.473753-16.138769 272.511463-19.099399-19.455564-121.831011-89.241828-226.899963-187.387804-293.169087z m-244.329833-74.661285c-105.848065 0-202.903283 37.620027-278.588545 100.238451 5.787696-4.674678 9.816824-7.635307 9.816824-7.635307s83.810297 182.757647 343.14362 273.134753c0.957196 0.356166 1.981173 0.60103 2.938369 0.890415 61.549926-159.829465 86.882229-293.725597 93.382257-331.946654-52.423174-22.260371-110.188837-34.681658-170.692525-34.681658zM74.729624 384.033057c0 4.652418 0.222604 9.215794 0.356166 13.80143 7.76887-0.178083 223.783511-5.075365 448.924905 62.306779 12.510329-24.486408 24.486408-49.484805 35.460771-74.34964-5.787696-1.558226-11.508612-3.316795-17.229527-5.253448-235.959934-76.19725-355.653949-288.49441-355.65395-288.494409s0.178083-0.155823 0.178083-0.222604A435.546421 435.546421 0 0 0 74.729624 384.010796z m250.6963 395.344191c5.854478-7.746609 86.704146-117.378937 162.389407-251.876099-209.93756-55.80675-392.205479-53.580713-403.69183-53.402631 28.359713 135.454358 119.315589 247.73567 241.302423 305.27873z m81.829124 29.161086c0-0.066781-0.066781-0.133562-0.066781-0.133562l-1.335622-0.222604c0.489728 0.111302 0.912675 0.155823 1.402403 0.333906z m393.518841-96.454188c-1.068498-1.625007-63.330756-96.454188-228.413668-158.271239-74.728066 137.324229-156.846575 246.422308-163.413385 255.081593A437.28273 437.28273 0 0 0 511.990094 821.204485c110.678565 0 211.762911-41.292988 288.761534-109.142599z m148.365373-323.710317c-6.321945 1.380143-154.308893 33.234734-304.521877 14.335679-3.138712 7.457224-6.232904 14.98123-9.460657 22.505235a1314.096489 1314.096489 0 0 1-29.094305 63.442058c172.673699 70.520856 242.771608 171.850065 243.617501 173.029865a435.501901 435.501901 0 0 0 99.459338-273.312837z m64.488296 98.680225a513.769366 513.769366 0 0 1-29.917939 96.253845 505.889194 505.889194 0 0 1-47.214247 86.926749 511.676891 511.676891 0 0 1-138.236905 138.236905 510.43031 510.43031 0 0 1-86.94901 47.258768A512.990253 512.990253 0 0 1 512.012355 895.999332a513.724845 513.724845 0 0 1-199.341624-40.291272A513.279637 513.279637 0 0 1 87.484817 670.256909 509.384072 509.384072 0 0 1 0.001558 384.033057a506.868651 506.868651 0 0 1 40.291272-199.319363 506.979952 506.979952 0 0 1 47.191987-87.038052 521.84988 521.84988 0 0 1 62.440341-75.752042 512.990253 512.990253 0 0 1 162.745573-109.632328c30.941916-13.133619 63.330756-23.106265 96.209324-29.784377 33.724462-6.989757 68.40612-10.484635 103.1323-10.484635 34.681658 0 69.363316 3.494878 103.065518 10.462375 32.900829 6.678111 65.289669 16.695278 96.231584 29.828897a510.140925 510.140925 0 0 1 86.94901 47.191987 519.846447 519.846447 0 0 1 75.796564 62.418081 517.954315 517.954315 0 0 1 62.440341 75.729782 511.231683 511.231683 0 0 1 77.132186 183.202854 518.021096 518.021096 0 0 1 0 206.197818z"  horiz-adv-x="1024" />
      
      <glyph glyph-name="telegram" unicode="&#58882;" d="M679.429 149.14300000000003l84 396q5.142 25.143-6 36t-29.429 4L234.286 394.857q-16.572-6.286-22.572-14.286t-1.428-15.142 18.285-11.143l126.286-39.429L648 499.43q12 8 18.286 3.428 4-2.857-2.286-8.571L426.857 280l-9.143-130.286q13.143 0 25.715 12.572l61.714 59.428 128-94.285q36.571-20.572 46.286 21.714zM1024 384q0-104-40.571-198.857T874.286 21.714000000000055 710.857-87.42899999999997 512-128t-198.857 40.571-163.429 109.143T40.571 185.14300000000003 0 384t40.571 198.857 109.143 163.429T313.143 855.429 512 896t198.857-40.571 163.429-109.143 109.143-163.429T1024 384z"  horiz-adv-x="1024" />
      
      <glyph glyph-name="ttww" unicode="&#59079;" d="M923.20000003 606.40000002c0-354.39999997-232.80000006-609.60000001-575.20000003-620.80000001-144.80000002-11.19999999-244.00000007 32.8-332.79999999 99.19999995 99.20000001-11.19999999 232.80000006 21.59999995 298.39999999 88.80000004-99.20000001 0-155.19999998 55.99999999-188 131.99999999h88.8C125.6 339.20000001000005 58.40000003 405.59999995 58.40000003 516c21.59999995-11.19999999 44-21.59999995 88.79999994-21.59999997-77.60000002 44-121.59999999 188-66.39999998 276.80000004 99.20000001-110.39999998 220.79999999-210.4 421.60000001-220.80000006-55.99999999 220.79999999 232.80000006 332.80000011 354.40000001 188.00000001 55.99999999 11.19999999 88.80000001 32.8 131.99999999 55.99999997-11.19999999-55.99999999-44-88.80000001-88.80000001-110.40000004 44 0 77.60000002 11.19999999 110.40000001 32.80000004-10.40000001-44-54.40000011-88.80000001-87.20000002-110.39999997z"  horiz-adv-x="1024" />
      
      <glyph glyph-name="time-circle-fill" unicode="&#58884;" d="M512 832C264.6 832 64 631.4 64 384s200.6-448 448-448 448 200.6 448 448S759.4 832 512 832z m176.5-585.7l-28.6-39c-2.6-3.6-7.6-4.3-11.2-1.7L483.3 326.2c-2.1 1.5-3.3 3.9-3.3 6.5V608c0 4.4 3.6 8 8 8h48.1c4.4 0 8-3.6 8-8v-247.5l142.6-103.1c3.6-2.5 4.4-7.5 1.8-11.1z"  horiz-adv-x="1024" />
      
      <glyph glyph-name="kafei" unicode="&#58886;" d="M862.663 431.673a146.347 146.347 0 0 1-42.667-5.973v48.64a128 128 0 0 1-128 128H128.37a128 128 0 0 1-128-128v-245.334a341.333 341.333 0 0 1 341.333-341.333H480.37a341.333 341.333 0 0 1 329.813 256 145.067 145.067 0 0 1 52.48-10.667 149.333 149.333 0 0 1 0 298.667z m-128-202.667a256 256 0 0 0-256-256h-136.96a256 256 0 0 0-256 256V474.34a42.667 42.667 0 0 0 42.667 42.666h565.333a42.667 42.667 0 0 0 42.667-42.666l-1.707-245.334z m128-10.666a62.72 62.72 0 0 0-37.547 12.373h-3.413V332.26h2.987a64 64 0 1 0 37.973-113.92z m-657.92 489.358l-8.107-12.374a42.667 42.667 0 0 1 11.947-59.306 42.667 42.667 0 0 1 23.467-7.254 42.667 42.667 0 0 1 35.413 19.2l8.107 12.374a102.827 102.827 0 0 1-13.227 128 19.627 19.627 0 0 0-2.987 27.306l9.387 15.787a42.667 42.667 0 0 1-73.387 43.52l-9.386-16.64a105.387 105.387 0 0 1 15.36-128c6.969-5.433 8.448-15.36 3.413-22.613z m178.773 0l-8.106-12.374a42.667 42.667 0 0 1 35.413-66.56 42.667 42.667 0 0 1 35.413 19.2l8.107 12.374a102.827 102.827 0 0 1-13.227 128 20.053 20.053 0 0 0-3.413 27.306l9.813 15.787a42.667 42.667 0 0 1-73.386 43.52l-9.387-16.64a105.387 105.387 0 0 1 16.64-128c6.173-5.973 7.083-15.587 2.133-22.613z m178.774 0l-8.107-12.374a42.667 42.667 0 0 1 35.413-66.56 42.667 42.667 0 0 1 35.414 19.2l8.106 12.374a102.827 102.827 0 0 1-13.226 128 20.053 20.053 0 0 0-3.414 27.306l11.52 15.36a42.667 42.667 0 0 1-16.64 58.454 42.667 42.667 0 0 1-58.453-14.507l-10.24-16.64a105.813 105.813 0 0 1 16.213-128 17.493 17.493 0 0 0 3.414-22.613z"  horiz-adv-x="1024" />
      
      <glyph glyph-name="Eye-Fill" unicode="&#59024;" d="M512 484.864c20.48 0 39.68-5.333333 57.6-15.957333 18.005333-10.666667 32.256-25.045333 42.794667-43.178667 10.538667-18.133333 15.786667-37.546667 15.786666-58.197333 0-20.650667-5.248-40.064-15.786666-58.197334a118.442667 118.442667 0 0 0-42.752-43.178666c-17.962667-10.666667-37.205333-15.957333-57.642667-15.957334-20.48 0-39.68 5.333333-57.6 15.957334a118.442667 118.442667 0 0 0-42.794667 43.178666 114.048 114.048 0 0 0-15.786666 58.197334c0 20.650667 5.248 40.064 15.786666 58.197333a118.442667 118.442667 0 0 0 42.752 43.178667c17.962667 10.666667 37.205333 15.957333 57.642667 15.957333z m0-313.514667c35.328 0 67.84 8.746667 97.621333 26.282667a194.090667 194.090667 0 0 1 70.613334 71.338667c17.365333 30.037333 26.026667 62.890667 26.026666 98.56 0 35.669333-8.661333 68.522667-26.026666 98.56a194.090667 194.090667 0 0 1-70.613334 71.338666A188.842667 188.842667 0 0 1 512 563.712c-35.328 0-67.84-8.746667-97.621333-26.282667-29.738667-17.493333-53.290667-41.301333-70.613334-71.338666a193.578667 193.578667 0 0 1-26.026666-98.56c0-35.669333 8.661333-68.522667 26.026666-98.56a194.090667 194.090667 0 0 1 70.613334-71.338667c29.781333-17.493333 62.293333-26.282667 97.621333-26.282667zM512 661.333333c63.829333 0 124.586667-12.501333 182.186667-37.546666a453.205333 453.205333 0 0 0 147.328-103.253334A459.818667 459.818667 0 0 0 938.666667 367.530667a454.698667 454.698667 0 0 0-97.152-152.533334 456.618667 456.618667 0 0 0-147.328-102.784c-57.6-25.045333-118.357333-37.546667-182.186667-37.546666-63.829333 0-124.586667 12.501333-182.186667 37.546666a456.618667 456.618667 0 0 0-147.328 102.784A454.698667 454.698667 0 0 0 85.333333 367.530667 459.818667 459.818667 0 0 0 182.485333 520.533333 453.205333 453.205333 0 0 0 329.813333 623.786667c57.6 25.045333 118.357333 37.546667 182.186667 37.546666z"  horiz-adv-x="1024" />
      
      <glyph glyph-name="calendar-fill" unicode="&#58914;" d="M19.485257 876.485486h994.742857v-994.742857h-994.742857zM711.153371 697.7536h163.196343c17.2032 0 31.100343-13.897143 31.100343-31.071086v-170.978743H128.292571V666.682514c0 17.173943 13.897143 31.071086 31.100343 31.071086h163.196343V759.954286c0 4.271543 3.510857 7.7824 7.753143 7.7824h54.418286c4.271543 0 7.753143-3.510857 7.753143-7.7824v-62.171429h248.685714V759.954286c0 4.271543 3.510857 7.7824 7.7824 7.7824h54.418286c4.271543 0 7.753143-3.510857 7.753142-7.7824v-62.171429zM159.392914-9.450057a31.041829 31.041829 0 0 0-31.071085 31.100343V429.641143h777.128228v-407.990857c0-17.2032-13.867886-31.100343-31.071086-31.100343H159.392914zM503.983543 162.055314l160.299886 210.563657c3.6864 4.885943 0 11.702857-6.319543 11.790629h-53.248a15.623314 15.623314 0 0 1-12.522057-6.056229l-100.732343-132.330057-51.287772 67.291429a15.886629 15.886629 0 0 1-12.551314 6.085486h-53.335771c-6.290286 0-10.005943-6.816914-6.290286-11.702858l110.913828-145.642057a15.945143 15.945143 0 0 1 25.073372 0z"  horiz-adv-x="1024" />
      
      <glyph glyph-name="appstore-fill" unicode="&#59593;" d="M864 752h-304a16.042667 16.042667 0 0 1-16-16v-304c0-8.789333 7.210667-16 16-16h304a16.042667 16.042667 0 0 1 16 16V736a16.042667 16.042667 0 0 1-16 16z m0-400h-304a16.042667 16.042667 0 0 1-16-16v-304c0-8.789333 7.210667-16 16-16h304a16.042667 16.042667 0 0 1 16 16v304a16.042667 16.042667 0 0 1-16 16z m-400 400H160a16.042667 16.042667 0 0 1-16-16v-304c0-8.789333 7.210667-16 16-16h304a16.042667 16.042667 0 0 1 16 16V736a16.042667 16.042667 0 0 1-16 16z m0-400H160a16.042667 16.042667 0 0 1-16-16v-304c0-8.789333 7.210667-16 16-16h304a16.042667 16.042667 0 0 1 16 16v304a16.042667 16.042667 0 0 1-16 16z"  horiz-adv-x="1024" />
      
      <glyph glyph-name="tagsfillicon" unicode="&#58942;" d="M466.368-82.901333l-42.432 41.386666L163.370667 212.928a8.277333 8.277333 0 0 0 0 11.84l42.432 41.386667a8.746667 8.746667 0 0 0 12.117333 0l254.570667-248.362667 387.776 378.624a8.746667 8.746667 0 0 0 12.117333 0l42.432-41.386667a8.277333 8.277333 0 0 0 0-11.84L478.4-82.901333a8.746667 8.746667 0 0 0-12.096 0z m0.853333 175.424L109.162667 442.730667a8.277333 8.277333 0 0 0 0 11.84L514.368 850.88a8.533333 8.533333 0 0 0 6.741333 2.410667L844.032 826.666667a17.066667 17.066667 0 0 0 15.637333-15.296l27.328-315.733334a8.170667 8.170667 0 0 0-2.474666-6.592L479.317333 92.522667a8.533333 8.533333 0 0 0-12.117333 0z m143.573334 558.933333a49.621333 49.621333 0 0 1 0-71.146667 52.352 52.352 0 0 1 72.746666 0 49.621333 49.621333 0 0 1 0 71.146667 52.352 52.352 0 0 1-72.746666 0z"  horiz-adv-x="1024" />
      
      <glyph glyph-name="container" unicode="&#59547;" d="M877.714286 896H146.285714c-20.228571 0-36.571429-16.342857-36.571428-36.571429v-950.857142c0-20.228571 16.342857-36.571429 36.571428-36.571429h731.428572c20.228571 0 36.571429 16.342857 36.571428 36.571429V859.428571c0 20.228571-16.342857 36.571429-36.571428 36.571429z m-45.714286-941.714286H192V184h111.885714c13.257143-37.485714 36.571429-71.2 67.542857-96.8 39.428571-32.571429 89.371429-50.628571 140.571429-50.628571s101.142857 17.942857 140.571429 50.628571c30.971429 25.6 54.285714 59.314286 67.542857 96.8H832v72H662.4l-5.942857-28.228571C642.742857 159.428571 581.942857 109.714286 512 109.714286s-130.742857 49.714286-144.571429 118.057143l-5.942857 28.228571H192V813.714286h640v-859.428572zM292.571429 579.428571h438.857142c5.028571 0 9.142857 4.114286 9.142858 9.142858v54.857142c0 5.028571-4.114286 9.142857-9.142858 9.142858H292.571429c-5.028571 0-9.142857-4.114286-9.142858-9.142858v-54.857142c0-5.028571 4.114286-9.142857 9.142858-9.142858z m0-182.857142h438.857142c5.028571 0 9.142857 4.114286 9.142858 9.142857v54.857143c0 5.028571-4.114286 9.142857-9.142858 9.142857H292.571429c-5.028571 0-9.142857-4.114286-9.142858-9.142857v-54.857143c0-5.028571 4.114286-9.142857 9.142858-9.142857z"  horiz-adv-x="1024" />
      
      <glyph glyph-name="douban-fill" unicode="&#58889;" d="M373.344 458.24h278.944v-102.208h-278.944V458.24z m386.56 367.136H265.12c-110.752 0-200.576-90.272-200.576-201.632v-497.312c0-111.36 89.824-201.6 200.576-201.6h494.784c110.784 0 200.608 90.24 200.608 201.6V623.744c0 111.36-89.824 201.632-200.608 201.632zM275.2 620.928h474.656v-53.472H275.2V620.928z m41.216-318.24v208.96h392.16v-208.96H316.416z m446.88-173.376H261.792v52.864h146.144a735.808 735.808 0 0 1-52.448 90.816l52.448 20.736c20.832-30.848 39.424-68.032 55.872-111.584h99.296a686.176 686.176 0 0 1 51.744 111.584l57.024-20.736a608.128 608.128 0 0 0-48.064-90.816h139.52v-52.864z"  horiz-adv-x="1024" />
      
      <glyph glyph-name="infocircle" unicode="&#58943;" d="M512.102259 896a511.992426 511.992426 0 1 1 511.897753-511.992426A511.897753 511.897753 0 0 1 512.102259 896z m46.768539-747.91793h-94.010444V502.443692h94.010444z m-47.336578 393.366962a49.135368 49.135368 0 1 0 50.934158 49.230041 49.324714 49.324714 0 0 0-50.650139-49.608734z"  horiz-adv-x="1024" />
      
      <glyph glyph-name="battle-net" unicode="&#58891;" d="M897.22 444.76c53.74-0.36 71.14 14.86 77.84 24.74 24.94 32.64-14.12 95.2-105.7 142.66 35.52 67.16 60.22 127.36 72.68 170.6 6.76 23.66 2.18 38 0.9 40.5-3.44-21.04-31.7-96.92-96.4-200.1-50 22.44-113.04 40.2-187.54 47.6-17.88 33.88-69.76 127.72-120.96 177.86C504.36 881.72 477.4 893.86 456.36 895.56h-0.1c-27.66 3.1-45.34-11.7-54.8-22-34.4-37.06-48.66-97.74-50-168.14-14.48 24.7-34.34 49.26-57 51.86h-0.36c-41.32 6.96-76.78-58.44-72-162.58-76.72-2.76-142-11.5-186-22.46-19.8-4.9-32.44-14.54-35.52-19.44 2 0.76 44.8 18.44 223.12 18.44 10.44-106 59.5-203.64 52-186.38-19.46-30.8-76.48-124.72-94.62-195.4-11.74-45.76-8.74-75.22 0.3-94.28 11.14-25.5 32.82-33.44 46.4-36.52 50-11.42 110.76 7.26 173.4 42.28-15.06-25.68-27.8-57.02-18.12-78.68 14.62-39.3 88.98-37.32 176.88 18.9 40.36-64.36 80.14-115.88 111.4-148.24a79.58 79.58 0 0 1 17.5-14.18c10.28-6.42 17.16-6.74 17.16-6.74-16.48 13.5-68 76-125.08 183.56 44.44 32 91.3 77.74 134.94 138.54 245.64-9.2 286.58 49.52 296 63.28 29.34 39.76 6.86 114.88-114.64 187.38z m-155.7-212.44c47.62 75.42 60.68 135.54 58.9 184.66 55.72-35.14 94.36-75.16 98.12-117.66 2.28-25.86-16.2-58.24-157.02-67zM433.8 120.62c19.52 12.46 39.06 26.24 58.4 40.98 13.36-26.66 27.2-52.2 41.2-76.38-81.2-43.72-137.68-25.52-99.6 35.4z m430 342.7c-20.58 10.68-42.32 20.68-64.76 30.1a1444.918 1444.918 0 0 1 45.48 73.8c78.12-48.2 91.8-106.36 19.28-103.9zM558.36 100c-11.02 22.7-22 47-33 72.88 86.5-2.54 124.84 37.46 126.56 40.82 0-0.14-50-31.28-125.06-24.5a1437.56 1437.56 0 0 1 170.12 168q26.12 30.62 49.86 62.22c-0.72 0.58-3.08 6-33.02 24-103.4-120.54-204.68-196-265.5-231.84-41.18 22.36-81.68 63.56-111.42 122.98-40 79.84-60 164.78-63.14 232.14 24.6-1.82 50.54-4.34 77.7-7.76-44.58-73.6-28.78-126-26.94-128.46 0 0.14-1.9 58.34 40.28 119.14a1390.46 1390.46 0 0 1 89.34-305.68c1.86 0.76 3.68-1.76 37.34 16.5-52.66 148.94-67.52 276.34-68 346.86 40 24.84 96.36 39.6 163.26 35.62 89.14-5.34 172.72-30.5 232.64-61.42q-21.38-31.32-46.66-64.94C731.26 592 678.2 604.3199999999999 675 604c0.22 0 51.8-28.14 83.04-94.44a1435.26 1435.26 0 0 1-230.68 63.42 1293.216 1293.216 0 0 1-78.78 12.1c-0.14-0.9-3.62-3.7-4.32-40.66C600 515.44 717.56 464.64 778.72 430c1.48-47.1-13.9-103.22-50.82-159.14-49.2-74.62-112.78-134.46-169.54-170.86z m54.8 574c-89.12 3.32-147.16-14.86-189.38-41.34 4 104.6 42.62 152.76 76.42 150.56C534 791.7 610 678.9 613.16 674z m-261.3-6.2c0.96-24.22 3.18-49.24 6.42-74.56-29.1 1.7-57.48 2.5-84.8 2.52-0.16-6.48-0.24 102 49.34 99.18h0.18c11.52-2.18 21.26-13.76 28.86-27.14z m-56.12-324c41.52-79.4 86.6-121.14 130.5-144.62-93.58-49.52-155.06-40-169.84-9.02-0.4 0.42-22.26 30.6 39.34 153.62z m420.12-149.6"  horiz-adv-x="1024" />
      
      <glyph glyph-name="areachart" unicode="&#59080;" d="M888 104H200V728c0 4.4-3.6 8-8 8h-56c-4.4 0-8-3.6-8-8v-688c0-4.4 3.6-8 8-8h752c4.4 0 8 3.6 8 8v56c0 4.4-3.6 8-8 8z m-616 64h536c4.4 0 8 3.6 8 8V612c0 7.2-8.7 10.7-13.7 5.7L592 407.4l-125.4 124c-3.1 3.1-8.2 3.1-11.3 0l-189-189.6c-1.5-1.5-2.3-3.5-2.3-5.6V176c0-4.4 3.6-8 8-8z"  horiz-adv-x="1024" />
      
    </font>
</defs>
</svg>
